<?xml version="1.0" encoding="utf-8"?>
<!-- Generator: Adobe Illustrator 28.0.0, SVG Export Plug-In . SVG Version: 6.00 Build 0)  -->
<svg version="1.1" id="Layer_1" xmlns="http://www.w3.org/2000/svg" xmlns:xlink="http://www.w3.org/1999/xlink" x="0px" y="0px"
	 viewBox="0 0 215.9 215.9" style="enable-background:new 0 0 215.9 215.9;" xml:space="preserve">
<style type="text/css">
	.st0{fill:#0F69C4;}
</style>
<g>
	<path class="st0" d="M187.1,186.5c-52.9,0-105.2,0-158.2,0c0.9-10.3-2.4-20.8,3.2-30.5c3.4-5.9,8.6-9.9,14.5-12.9
		c18.5-9.4,38.2-15.1,59-15.3c25-0.2,48.8,5.4,70.1,19.3c7.7,5,11.7,12.4,11.5,21.9C187,174.7,187.1,180.4,187.1,186.5z"/>
	<path class="st0" d="M147.1,68c0.6,19.7-15.6,39-38.4,39.5c-20.9,0.4-39.3-16-39.9-38.4c-0.6-20.8,16.5-39.7,38-40.4
		C127.5,28,147.2,45.4,147.1,68z"/>
</g>
</svg>
