<?xml version="1.0" encoding="UTF-8"?>
<svg id="Layer_1" data-name="Layer 1" xmlns="http://www.w3.org/2000/svg" viewBox="0 0 228.22 250.95">
  <defs>
    <style>
      .cls-1 {
        fill: #0F69C4;
        stroke-width: 0px;
      }
    </style>
  </defs>
  <path class="cls-1" d="m114.17,83.16c-35.81,0-71.63-.1-107.44.11-5.05.03-6.81-1.25-6.34-6.42.53-5.78-1.69-12.79.88-17.12,2.57-4.32,9.55-6.07,14.68-8.8C46.95,34.44,77.99,18.04,108.94,1.48c3.39-1.81,6.11-2.06,9.66-.16,34.8,18.55,69.67,36.97,104.6,55.26,3.55,1.86,5.32,3.83,4.97,8-.39,4.63-.27,9.33-.03,13.98.18,3.48-1.04,4.76-4.55,4.66-6.66-.19-13.32-.05-19.99-.05-29.82,0-59.63,0-89.45,0Z"/>
  <path class="cls-1" d="m114.45,214.7c35.49,0,70.97,0,106.46,0q7.18,0,7.18,7.41c0,7.83-.23,15.67.09,23.49.18,4.25-1.29,5.37-5.38,5.35-32.65-.14-65.31-.08-97.96-.08-39.15,0-78.3,0-117.46,0q-6.89,0-6.89-6.64c0-8,.26-16.01-.1-23.99-.2-4.45,1.22-5.65,5.6-5.63,36.15.16,72.31.09,108.46.09Z"/>
  <path class="cls-1" d="m24.41,190.85v-83.8c11.17,0,22.1-.08,33.03.15.85.02,2.37,2.18,2.38,3.34.14,25.62.09,51.24.12,76.86,0,2.53-1,3.51-3.57,3.48-10.46-.09-20.92-.04-31.95-.04Z"/>
  <path class="cls-1" d="m131.34,190.56h-34.87v-83.18h34.87v83.18Z"/>
  <path class="cls-1" d="m203.16,190.84c-10.91,0-21.68.11-32.44-.19-.97-.03-2.65-2.63-2.69-4.07-.24-9.98-.13-19.97-.13-29.95,0-14.48.22-28.96-.12-43.44-.12-5.18,1.53-6.51,6.52-6.3,9.45.4,18.93.12,28.86.12v83.83Z"/>
</svg>