<?xml version="1.0" encoding="utf-8"?>
<!-- Generator: Adobe Illustrator 28.0.0, SVG Export Plug-In . SVG Version: 6.00 Build 0)  -->
<svg version="1.1" id="Layer_1" xmlns:xodm="http://www.corel.com/coreldraw/odm/2003"
	 xmlns="http://www.w3.org/2000/svg" xmlns:xlink="http://www.w3.org/1999/xlink" x="0px" y="0px" viewBox="0 0 2001.8 2001.8"
	 style="enable-background:new 0 0 2001.8 2001.8;" xml:space="preserve">
<style type="text/css">
	.st0{fill:#FFFFFF;}
</style>
<path class="st0" d="M1000.9,1251.4c-8.7,0.3-13.9,6.2-21.6,16.1L778.5,1627c-19.8,35.7-64.8,48.5-100.5,28.7s-48.5-64.8-28.7-100.5
	c220.2-492.6,197.7-282.8,210.4-781.9c-0.6-30.9-66.4-47.3-99.9-61.5l-236-91c-37.7-10.7-45.9-47.7-34.7-75.7
	c9.2-22.9,29.9-40.2,70.9-28.5c243.5,70,342.1,104.9,440.9,104.8c98.8,0.1,197.4-34.8,440.9-104.8c41-11.7,61.7,5.6,70.9,28.5
	c11.2,28,3,65-34.7,75.7l-236,91c-33.5,14.2-99.3,30.5-99.9,61.5c12.7,499.2-9.8,289.4,210.4,781.9c19.8,35.7,7,80.7-28.7,100.5
	s-80.7,7-100.5-28.7l-200.8-359.5C1014.8,1257.6,1009.6,1251.7,1000.9,1251.4z M1000.9,0c552.8,0,1000.9,448.1,1000.9,1000.9
	s-448.1,1000.9-1000.9,1000.9S0,1553.7,0,1000.9S448.1,0,1000.9,0L1000.9,0z M1883.2,1000.9c0-487.3-395-882.3-882.3-882.3
	s-882.3,395-882.3,882.3s395,882.3,882.3,882.3S1883.2,1488.2,1883.2,1000.9L1883.2,1000.9z M1000.9,336.7
	c66.9,0,121.1,54.2,121.1,121.1s-54.2,121.1-121.1,121.1s-121.1-54.2-121.1-121.1C879.8,391,934,336.7,1000.9,336.7L1000.9,336.7z"
	/>
</svg>
