<?xml version="1.0" encoding="utf-8"?>
<!-- Generator: Adobe Illustrator 28.0.0, SVG Export Plug-In . SVG Version: 6.00 Build 0)  -->
<svg version="1.1" id="Layer_1" xmlns="http://www.w3.org/2000/svg" xmlns:xlink="http://www.w3.org/1999/xlink" x="0px" y="0px"
	 viewBox="0 0 27.8 31.4" style="enable-background:new 0 0 27.8 31.4;" xml:space="preserve">
<style type="text/css">
	.st0{fill:#FFFFFF;}
</style>
<g>
	<path class="st0" d="M12.9,18.9c0.5,0.5,1.2,0.6,1.7,0.1s0.6-1.2,0.1-1.7s-1.2-0.6-1.7-0.1C12.5,17.6,12.5,18.4,12.9,18.9z"/>
	<path class="st0" d="M19,4.8c-0.6-0.2-1.2,0.1-1.5,0.6c-0.2,0.6,0.1,1.2,0.6,1.5c4.4,1.8,7.3,6,7.3,10.8c0,6.4-5.2,11.6-11.6,11.6
		C7.4,29.2,2.2,24,2.2,17.6C2.2,12.9,5,8.8,9.3,7c0.6-0.2,0.8-0.9,0.6-1.5C9.7,4.9,9,4.7,8.5,4.9C3.3,7,0,12,0,17.6
		c0,7.6,6.2,13.8,13.9,13.8s13.9-6.2,13.9-13.8C27.7,12,24.3,6.9,19,4.8z"/>
	<path class="st0" d="M6.8,18.1c0,3.9,3.2,7.1,7.1,7.1l0,0c3.9,0,7.1-3.2,7.1-7.1l0,0c0-3.5-2.6-6.5-6.1-7V2.3h3
		c0.6,0,1.1-0.5,1.1-1.1C19,0.5,18.6,0,17.9,0h-4.1c-0.6,0-1.1,0.5-1.1,1.1V11C9.3,11.7,6.8,14.6,6.8,18.1z M18.7,18.1
		c0,2.7-2.2,4.8-4.9,4.8S9,20.7,8.9,18.1l0,0c0-2.7,2.2-4.8,4.8-4.8l0,0C16.6,13.2,18.7,15.4,18.7,18.1z"/>
</g>
</svg>
