<?xml version="1.0" encoding="utf-8"?>
<!-- Generator: Adobe Illustrator 28.0.0, SVG Export Plug-In . SVG Version: 6.00 Build 0)  -->
<svg version="1.1" id="Layer_1" xmlns="http://www.w3.org/2000/svg" xmlns:xlink="http://www.w3.org/1999/xlink" x="0px" y="0px"
	 viewBox="0 0 55.5 11.4" style="enable-background:new 0 0 55.5 11.4;" xml:space="preserve">
<style type="text/css">
	.st0{fill:#00254D;}
</style>
<path class="st0" d="M5.6,2l-3.1,9.4H0L4.2,0h1.6L5.6,2z M8.2,11.4L5.1,2L4.8,0h1.6l4.2,11.4H8.2z M8,7.1V9H2V7.2L8,7.1L8,7.1z
	 M21,0v11.4h-2.3l-4.6-7.6v7.6h-2.3V0h2.3l4.6,7.6V0H21z M25.5,0v11.4h-2.3V0H25.5z M31.2,11.4h-2.5V9.6h2.5c0.6,0,1.1-0.1,1.6-0.4
	c0.4-0.3,0.7-0.7,1-1.2c0.2-0.5,0.3-1.2,0.3-1.9V5.4c0-0.6-0.1-1.1-0.2-1.5c-0.1-0.4-0.3-0.8-0.5-1.1c-0.2-0.3-0.5-0.5-0.9-0.7
	c-0.3-0.2-0.8-0.2-1.2-0.2h-2.5V0h2.5c0.8,0,1.5,0.1,2.1,0.4S34.6,1,35,1.5c0.5,0.5,0.8,1.1,1.1,1.7c0.3,0.7,0.4,1.4,0.4,2.2V6
	c0,0.8-0.1,1.5-0.4,2.2c-0.2,0.7-0.6,1.2-1.1,1.7s-1,0.8-1.6,1.1C32.7,11.3,32,11.4,31.2,11.4z M30.1,0v11.4h-2.3V0H30.1z M44.6,0
	v11.4h-2.3V0H44.6z M50.3,11.4h-2.5V9.6h2.5c0.6,0,1.1-0.1,1.6-0.4c0.4-0.3,0.7-0.7,1-1.2c0.2-0.5,0.3-1.2,0.3-1.9V5.4
	c0-0.6-0.1-1.1-0.2-1.5c-0.1-0.4-0.3-0.8-0.5-1.1c-0.2-0.3-0.5-0.5-0.9-0.7c-0.3-0.2-0.8-0.2-1.2-0.2h-2.5V0h2.5
	c0.8,0,1.5,0.1,2.1,0.4s1.2,0.6,1.6,1.1c0.4,0.5,0.8,1.1,1,1.7c0.3,0.7,0.4,1.4,0.4,2.2V6c0,0.8-0.1,1.5-0.4,2.2
	c-0.2,0.7-0.6,1.2-1.1,1.7s-1,0.8-1.6,1.1C51.8,11.3,51.1,11.4,50.3,11.4z M49.1,0v11.4h-2.3V0H49.1z"/>
</svg>
