<svg width="96" height="88" viewBox="0 0 96 88" fill="none" xmlns="http://www.w3.org/2000/svg">
<path d="M1.86528 85.7802V1.87202H38.5699V0H0V87.6522H38.5699V85.7802H1.86528Z" fill="#F9F9F9"/>
<path d="M40.4352 0V1.87202H94.1347V85.7802H40.4352V87.6522H96V0H40.4352Z" fill="#F9F9F9"/>
<path d="M40.4352 1.87202V0H38.57V1.87202V85.7802V87.6522H40.4352V85.7802V1.87202Z" fill="#F9F9F9"/>
<path d="M45.5751 80.9129H46.1554V81.6825C45.9689 81.7865 45.6995 81.8281 45.4301 81.8281C44.7254 81.8281 44.3731 81.2873 44.3731 80.2889C44.3731 79.4569 44.7047 78.8745 45.4715 78.8745C45.9067 78.8745 46.2591 78.9785 46.487 79.1449L46.8394 78.5209C46.5078 78.3129 46.0933 78.1465 45.4715 78.1465C44.1658 78.1465 43.5233 78.9993 43.5233 80.2889C43.5233 81.5785 44.1036 82.4937 45.3679 82.4937C45.886 82.4937 46.3627 82.3689 46.9223 82.0985V80.2681H45.5544L45.5751 80.9129Z" fill="#F9F9F9"/>
<path d="M48.8704 79.353C47.9378 79.353 47.4404 80.0394 47.4404 80.9338C47.4404 81.9739 47.9585 82.5147 48.8704 82.5147C49.7824 82.5147 50.3005 81.9531 50.3005 80.9338C50.3005 80.0394 49.7824 79.353 48.8704 79.353ZM48.8704 81.9323C48.4767 81.9323 48.2901 81.6411 48.2901 80.9338C48.2901 80.2266 48.4974 79.9354 48.8704 79.9354C49.2435 79.9354 49.4715 80.185 49.4715 80.9338C49.4715 81.6827 49.2642 81.9323 48.8704 81.9323Z" fill="#F9F9F9"/>
<path d="M52.456 79.3526C52.1244 79.3526 51.7928 79.5398 51.6477 79.727L51.7099 79.2278V78.167H50.9016V82.4518H51.3368L51.4819 82.0774C51.6684 82.3478 51.9378 82.5142 52.3523 82.5142C53.057 82.5142 53.6788 81.9734 53.6788 80.9126C53.6788 79.8518 53.1606 79.3526 52.456 79.3526ZM52.2694 81.9318C52.0622 81.9318 51.8342 81.7862 51.7099 81.6198V80.1846C51.8549 80.0598 52.0622 79.935 52.2694 79.935C52.6425 79.935 52.8705 80.1846 52.8705 80.9126C52.8705 81.6406 52.6218 81.9318 52.2694 81.9318Z" fill="#F9F9F9"/>
<path d="M55.3575 78.167H54.5285V78.895H55.3575V78.167Z" fill="#F9F9F9"/>
<path d="M54.1969 79.935L54.5492 80.0182V82.4727H55.3575V79.415H54.1969V79.935Z" fill="#F9F9F9"/>
<path d="M57.3886 79.353C56.4145 79.353 55.9585 79.9978 55.9585 80.9338C55.9585 81.9323 56.5181 82.5355 57.4508 82.5355C57.9274 82.5355 58.3419 82.3691 58.5907 82.2235L58.4248 81.641C58.1554 81.7659 57.8445 81.9114 57.5337 81.9114C57.0155 81.9114 56.7461 81.6411 56.7461 81.1626H58.6321V80.809C58.6736 80.0394 58.3005 79.353 57.3886 79.353ZM56.7875 80.6842C56.7875 80.3306 56.9533 79.9562 57.3471 79.9562C57.7616 79.9562 57.886 80.289 57.886 80.6842H56.7875Z" fill="#F9F9F9"/>
<path d="M59.9585 79.8314H59.9378C59.9171 79.7066 59.8756 79.561 59.8549 79.4154H59.2746V82.4523H60.0829V80.2474C60.228 80.1434 60.4145 80.0394 60.6217 80.0394C60.7668 80.0394 60.9119 80.0602 60.9948 80.081C60.9948 79.8522 60.9948 79.6234 61.0155 79.3946C60.9534 79.3738 60.829 79.353 60.6632 79.353C60.3109 79.353 60.0414 79.6026 59.9585 79.8314Z" fill="#F9F9F9"/>
<path d="M63.1295 79.353C62.6736 79.353 62.3419 79.561 62.1761 79.769L62.0518 79.4154H61.4922V82.4523H62.3005V80.1434C62.4456 80.0394 62.6114 79.9562 62.8394 79.9562C63.2124 79.9562 63.3782 80.1642 63.3782 80.6426V82.4523H64.2072V80.5594C64.2072 79.8106 63.8963 79.353 63.1295 79.353Z" fill="#F9F9F9"/>
<path d="M66.1761 79.353C65.2435 79.353 64.7461 80.0394 64.7461 80.9338C64.7461 81.9739 65.2642 82.5147 66.1761 82.5147C67.088 82.5147 67.6062 81.9531 67.6062 80.9338C67.6062 80.0394 67.088 79.353 66.1761 79.353ZM66.1761 81.9323C65.7823 81.9323 65.5958 81.6411 65.5958 80.9338C65.5958 80.2266 65.8031 79.9354 66.1761 79.9354C66.5492 79.9354 66.7772 80.185 66.7772 80.9338C66.7772 81.6827 66.5699 81.9323 66.1761 81.9323Z" fill="#F9F9F9"/>
<path d="M71.4611 79.0822C71.4611 79.311 71.4819 79.4774 71.544 79.6438C71.3782 79.4566 71.1088 79.3526 70.7979 79.3526C70.0518 79.3526 69.4922 79.935 69.4922 80.9334C69.4922 82.015 70.0518 82.5142 70.7357 82.5142C71.1295 82.5142 71.4197 82.3062 71.544 82.119L71.6477 82.4518H72.3109V78.167H71.5026L71.4611 79.0822ZM71.4611 81.6822C71.3161 81.8486 71.1088 81.9526 70.9015 81.9526C70.5078 81.9526 70.2798 81.6822 70.2798 80.9542C70.2798 80.2262 70.5285 79.9766 70.9015 79.9766C71.1295 79.9766 71.3368 80.0598 71.4611 80.1222V81.6822Z" fill="#F9F9F9"/>
<path d="M74.3005 79.353C73.3264 79.353 72.8705 79.9978 72.8705 80.9338C72.8705 81.9323 73.4301 82.5355 74.3627 82.5355C74.8394 82.5355 75.2539 82.3691 75.5026 82.2235L75.3575 81.641C75.0881 81.7659 74.7772 81.9114 74.4663 81.9114C73.9482 81.9114 73.6788 81.6411 73.6788 81.1626H75.5648V80.809C75.5855 80.0394 75.2124 79.353 74.3005 79.353ZM73.6995 80.6842C73.6995 80.3306 73.8653 79.9562 74.2591 79.9562C74.6529 79.9562 74.7979 80.289 74.7979 80.6842H73.6995Z" fill="#F9F9F9"/>
<path d="M79.3575 81.8072C78.6736 81.8072 78.3212 81.2872 78.3212 80.3304C78.3212 79.4152 78.6736 78.8952 79.3575 78.8952C79.7927 78.8952 80.1658 79.02 80.3938 79.1864L80.7047 78.5416C80.3731 78.3128 79.8549 78.188 79.2746 78.188C78.0933 78.188 77.4715 79.0616 77.4715 80.3512C77.4715 81.7448 78.0933 82.5352 79.2746 82.5352C79.8342 82.5352 80.2902 82.3688 80.7047 82.0984L80.456 81.4536C80.1658 81.6408 79.7513 81.8072 79.3575 81.8072Z" fill="#F9F9F9"/>
<path d="M82.8601 79.3526C82.4248 79.3526 82.1761 79.5606 82.0103 79.7686C82.0311 79.727 82.0932 79.519 82.0932 79.2902V78.167H81.2849V82.4518H82.0932V80.143C82.2383 80.039 82.4041 79.9558 82.6321 79.9558C82.943 79.9558 83.1088 80.1014 83.1295 80.455C83.1502 80.4966 83.171 80.559 83.171 80.6422V82.4518H84V80.559C83.9792 79.8102 83.7305 79.3526 82.8601 79.3526Z" fill="#F9F9F9"/>
<path d="M85.6995 78.167H84.8705V78.895H85.6995V78.167Z" fill="#F9F9F9"/>
<path d="M84.5388 79.935L84.8912 80.0182V82.4727H85.6994V79.415H84.5388V79.935Z" fill="#F9F9F9"/>
<path d="M87.2331 81.62V78.188H86.4249V81.6616C86.4249 82.2024 86.6528 82.5352 87.2746 82.5352C87.4818 82.5352 87.7098 82.4936 87.7098 82.4936V81.9112C87.3989 81.9112 87.2331 81.8696 87.2331 81.62Z" fill="#F9F9F9"/>
<path d="M89.6373 82.5355C90.114 82.5355 90.5285 82.3691 90.7772 82.2235L90.6321 81.641C90.3627 81.7659 90.0518 81.9114 89.7409 81.9114C89.2228 81.9114 88.9533 81.6411 88.9533 81.1626H90.8393V80.809C90.8393 80.0394 90.4663 79.353 89.5544 79.353C88.5803 79.353 88.1243 79.9978 88.1243 80.9338C88.1451 81.9531 88.6839 82.5355 89.6373 82.5355ZM89.5129 79.9562C89.9274 79.9562 90.0518 80.289 90.0518 80.6842H88.9326C88.9533 80.3098 89.1191 79.9562 89.5129 79.9562Z" fill="#F9F9F9"/>
<path d="M44.5803 9.27675H46.3627L46.6321 10.4416H47.772L46.4041 5.2207H44.7254L43.3161 10.4624H44.3109L44.5803 9.27675ZM45.3264 6.13591H45.6373L46.1762 8.46554H44.7668L45.3264 6.13591Z" fill="#F9F9F9"/>
<path d="M48.1036 11.0032C48.1036 11.6896 48.9119 12.0432 49.6995 12.0432C50.6529 12.0432 51.5026 11.5648 51.5026 10.6704C51.5026 9.25598 49.0985 9.73439 49.0985 9.31838C49.0985 9.21438 49.1606 9.15198 49.285 9.11038C49.4508 9.15198 49.6166 9.17278 49.7617 9.17278C50.4042 9.17278 51.3161 8.79838 51.3161 7.88317C51.2953 7.63357 51.1088 7.44636 50.943 7.27996C51.1917 7.36316 51.4819 7.40476 51.6477 7.40476L51.6684 6.65595C51.0052 6.65595 50.1762 6.57275 49.7617 6.57275C49.1606 6.57275 48.2073 6.86396 48.2073 7.86237C48.2073 8.40317 48.4974 8.71518 48.8912 8.92318C48.4767 8.94398 48.1865 9.19358 48.1865 9.50559C48.1865 9.94239 48.6632 10.088 49.1192 10.1504C48.4767 10.2544 48.1036 10.5248 48.1036 11.0032ZM49.7617 7.32156C50.0518 7.32156 50.4249 7.44636 50.4249 7.88317C50.4249 8.36157 50.0518 8.48637 49.7617 8.48637C49.4715 8.48637 49.0777 8.36157 49.0777 7.88317C49.0777 7.42556 49.4508 7.32156 49.7617 7.32156ZM49.6166 10.2336C50.2176 10.2752 50.5078 10.4 50.5078 10.7328C50.5078 11.128 50.2176 11.3568 49.7617 11.3568C49.3472 11.3568 49.057 11.1072 49.057 10.7744C49.057 10.4416 49.2435 10.2752 49.6166 10.2336Z" fill="#F9F9F9"/>
<path d="M53.9482 10.5458C54.5492 10.5458 55.0674 10.3378 55.3783 10.1714L55.1917 9.46418C54.8601 9.63058 54.4663 9.77618 54.0726 9.77618C53.4508 9.77618 53.0985 9.44338 53.0985 8.84017H55.4404V8.40337C55.4404 7.44656 54.9845 6.59375 53.8653 6.59375C52.6632 6.59375 52.1036 7.38416 52.1036 8.54897C52.0829 9.81779 52.7876 10.5458 53.9482 10.5458ZM53.8031 7.34256C54.3213 7.34256 54.4663 7.75856 54.4663 8.23697H53.0985C53.0985 7.80016 53.3057 7.34256 53.8031 7.34256Z" fill="#F9F9F9"/>
<path d="M57.1399 7.59216C57.3264 7.46736 57.5337 7.36336 57.8031 7.36336C58.259 7.36336 58.487 7.63376 58.487 8.19537V10.4418H59.5026V8.11217C59.5026 7.15536 59.1295 6.59375 58.1761 6.59375C57.6166 6.59375 57.202 6.84335 56.9741 7.11376L56.829 6.67695H56.1451V10.4626H57.1606L57.1399 7.59216Z" fill="#F9F9F9"/>
<path d="M61.9482 10.5458C62.5285 10.5458 63.0259 10.3378 63.2332 10.213L63.0466 9.48498C62.7979 9.63058 62.4249 9.77618 62.0311 9.77618C61.4922 9.77618 61.1606 9.42258 61.1606 8.56977C61.1606 7.71696 61.4922 7.36336 62.0104 7.36336C62.342 7.36336 62.6943 7.42576 62.9637 7.59216L63.2332 6.90575C62.8601 6.69775 62.4456 6.59375 61.9482 6.59375C60.829 6.59375 60.1658 7.32176 60.1658 8.56977C60.1451 9.90099 60.829 10.5458 61.9482 10.5458Z" fill="#F9F9F9"/>
<path d="M64.145 10.4624H65.1399V6.67676H63.7098V7.30076L64.145 7.40477V10.4624Z" fill="#F9F9F9"/>
<path d="M65.1399 5.1377H64.1243V6.05291H65.1399V5.1377Z" fill="#F9F9F9"/>
<path d="M67.2332 8.19537C66.3212 8.19537 65.8031 8.61137 65.8031 9.31858C65.8031 10.0258 66.3212 10.525 67.0674 10.525C67.6062 10.525 67.9793 10.2546 68.1658 10.005L68.3109 10.4626H68.9948V8.04977C68.9948 7.09296 68.5389 6.59375 67.4611 6.59375C66.8601 6.59375 66.342 6.73935 65.9689 6.90575L66.2176 7.63376C66.5285 7.48816 66.9015 7.38416 67.3575 7.38416C67.7513 7.38416 68.0207 7.52976 68.0207 8.02897V8.21617L67.2332 8.19537ZM68.0207 9.58898C67.8342 9.73458 67.5855 9.83859 67.3575 9.83859C66.9844 9.83859 66.7979 9.63058 66.7979 9.27698C66.7979 8.98578 66.9844 8.79857 67.399 8.79857H68.0207V9.58898Z" fill="#F9F9F9"/>
<path d="M46.943 17.4514H46.9223L45.285 13.2705H43.7306V18.4914H44.6425L44.5803 14.3937H44.601L46.2176 18.4914H47.8135V13.2705H46.8808L46.943 17.4514Z" fill="#F9F9F9"/>
<path d="M50.1762 14.6226C49.5751 14.6226 49.057 14.7682 48.6839 14.9346L48.9327 15.6418C49.2435 15.4962 49.6166 15.3922 50.0725 15.3922C50.4663 15.3922 50.7358 15.5378 50.7358 16.037V16.2242H49.9482C49.0363 16.2242 48.5181 16.6402 48.5181 17.3474C48.5181 18.0546 49.0155 18.5538 49.7824 18.5538C50.3212 18.5538 50.6943 18.2834 50.8808 18.0338L51.0259 18.4914H51.7099V16.0786C51.7099 15.1218 51.2539 14.6226 50.1762 14.6226ZM50.7358 17.6178C50.5492 17.7634 50.3005 17.8674 50.0725 17.8674C49.6995 17.8674 49.513 17.6594 49.513 17.3058C49.513 17.0146 49.6995 16.8274 50.114 16.8274H50.7358V17.6178Z" fill="#F9F9F9"/>
<path d="M54.3005 15.3922C54.6321 15.3922 54.9845 15.4546 55.2539 15.621L55.5233 14.9346C55.1503 14.7266 54.7358 14.6226 54.2383 14.6226C53.1192 14.6226 52.456 15.3506 52.456 16.5986C52.456 17.9298 53.1399 18.5746 54.2591 18.5746C54.8394 18.5746 55.3368 18.3666 55.544 18.2418L55.3575 17.5346C55.1088 17.6802 54.7358 17.8258 54.342 17.8258C53.8031 17.8258 53.4715 17.4722 53.4715 16.6194C53.4715 15.7666 53.7824 15.3922 54.3005 15.3922Z" fill="#F9F9F9"/>
<path d="M57.4093 13.1665H56.3938V14.0817H57.4093V13.1665Z" fill="#F9F9F9"/>
<path d="M56.4145 18.4912H57.4093V14.7056H55.9793V15.3296L56.4145 15.4336V18.4912Z" fill="#F9F9F9"/>
<path d="M58.114 16.5988C58.114 17.8884 58.7564 18.5748 59.8756 18.5748C60.9948 18.5748 61.6373 17.8884 61.6373 16.5988C61.6373 15.4964 61.0155 14.6436 59.8756 14.6436C58.7357 14.6436 58.114 15.4756 58.114 16.5988ZM59.8756 15.3508C60.3523 15.3508 60.6217 15.6628 60.6217 16.578C60.6217 17.4932 60.373 17.8052 59.8756 17.8052C59.3782 17.8052 59.1502 17.4516 59.1502 16.578C59.1502 15.7044 59.3989 15.3508 59.8756 15.3508Z" fill="#F9F9F9"/>
<path d="M63.0052 14.7058H62.3212V18.4914H63.3368V15.6418C63.5233 15.517 63.7305 15.413 64 15.413C64.4559 15.413 64.6839 15.6834 64.6839 16.2658V18.5122H65.6995V16.141C65.6995 15.1842 65.3264 14.6226 64.373 14.6226C63.8135 14.6226 63.3989 14.8722 63.171 15.1218L63.0052 14.7058Z" fill="#F9F9F9"/>
<path d="M66.4248 14.9346L66.6735 15.6418C66.9844 15.4962 67.3575 15.3922 67.8134 15.3922C68.2072 15.3922 68.4766 15.5378 68.4766 16.037V16.2242H67.6891C66.7772 16.2242 66.259 16.6402 66.259 17.3474C66.259 18.0546 66.7772 18.5538 67.5233 18.5538C68.0621 18.5538 68.4352 18.2834 68.6217 18.0338L68.7668 18.4914H69.4507V16.0786C69.4507 15.1218 68.9948 14.6226 67.9171 14.6226C67.316 14.6226 66.7979 14.7682 66.4248 14.9346ZM68.4766 17.6178C68.2901 17.7634 68.0414 17.8674 67.8134 17.8674C67.4404 17.8674 67.2538 17.6594 67.2538 17.3058C67.2538 17.0146 67.4404 16.8274 67.8549 16.8274H68.4766V17.6178Z" fill="#F9F9F9"/>
<path d="M71.2953 18.5541C71.5647 18.5541 71.8549 18.4917 71.8549 18.4917V17.7844C71.4404 17.7844 71.2539 17.7428 71.2539 17.41V13.146H70.259V17.4724C70.259 18.1589 70.5285 18.5541 71.2953 18.5541Z" fill="#F9F9F9"/>
<path d="M75.4611 18.5746C75.9378 18.5746 76.3109 18.3042 76.456 18.0754L76.5803 18.4914H77.3886V13.1665H76.3938V14.3105C76.3938 14.6017 76.4145 14.7889 76.4974 14.9969C76.2902 14.7681 75.9585 14.6225 75.5648 14.6225C74.6528 14.6225 73.9482 15.3297 73.9482 16.5985C73.9275 17.9506 74.6114 18.5746 75.4611 18.5746ZM75.7098 15.3921C76 15.3921 76.2487 15.4753 76.3938 15.5793V17.5138C76.2073 17.7218 75.9585 17.8466 75.6891 17.8466C75.2124 17.8466 74.9223 17.5138 74.9223 16.5985C74.9223 15.6833 75.2332 15.3921 75.7098 15.3921Z" fill="#F9F9F9"/>
<path d="M79.9378 18.5538C80.5388 18.5538 81.057 18.3458 81.3679 18.1794L81.1813 17.4722C80.8497 17.6386 80.4559 17.7842 80.0622 17.7842C79.4404 17.7842 79.0881 17.4514 79.0881 16.8482H81.43V16.4322C81.43 15.4754 80.9741 14.6226 79.8549 14.6226C78.6528 14.6226 78.0932 15.413 78.0932 16.5778C78.0725 17.8466 78.7772 18.5538 79.9378 18.5538ZM79.7927 15.3714C80.3109 15.3714 80.4559 15.7874 80.4559 16.2658H79.0881C79.0881 15.829 79.2953 15.3714 79.7927 15.3714Z" fill="#F9F9F9"/>
<path d="M44.8497 21.2993H43.8342V26.5202H44.8497V21.2993Z" fill="#F9F9F9"/>
<path d="M46.6943 23.1711L46.5492 22.7343H45.8653V26.52H46.8808V23.6704C47.0674 23.5456 47.2746 23.4415 47.544 23.4415C48 23.4415 48.228 23.712 48.228 24.2944V26.5408H49.2435V24.2112C49.2435 23.2543 48.8705 22.6927 47.9171 22.6927C47.3161 22.6511 46.9015 22.9215 46.6943 23.1711Z" fill="#F9F9F9"/>
<path d="M53.3057 22.7344H52.3109L51.5233 25.9168H51.4819L50.6943 22.7344H49.5544L50.6943 26.52H52.1658L53.3057 22.7344Z" fill="#F9F9F9"/>
<path d="M55.3782 22.6514C54.1761 22.6514 53.6166 23.4418 53.6166 24.6066C53.6166 25.8546 54.3005 26.5826 55.4818 26.5826C56.0829 26.5826 56.601 26.3746 56.9119 26.2082L56.7254 25.501C56.3938 25.6674 56 25.813 55.6062 25.813C54.9844 25.813 54.6321 25.4802 54.6321 24.877H56.9741V24.4402C56.9533 23.5042 56.4974 22.6514 55.3782 22.6514ZM54.6114 24.2946C54.6114 23.837 54.8186 23.4002 55.316 23.4002C55.8134 23.4002 55.9793 23.8162 55.9793 24.2946H54.6114Z" fill="#F9F9F9"/>
<path d="M58.6321 25.8752C58.2798 25.8752 57.9067 25.7296 57.7409 25.6048L57.5337 26.312C57.7824 26.4576 58.2176 26.5824 58.6736 26.5824C59.6477 26.5824 60.1658 26.0416 60.1658 25.3552C60.1658 24.128 58.5285 24.2944 58.5285 23.712C58.5285 23.504 58.6943 23.3584 59.0466 23.3584C59.399 23.3584 59.7099 23.4416 59.9586 23.5456L60.1036 22.8176C59.8342 22.7136 59.4404 22.6304 59.0466 22.6304C58.0311 22.6304 57.6166 23.1296 57.6166 23.6912C57.6166 24.9808 59.2332 24.752 59.2332 25.4384C59.1917 25.688 58.9637 25.8752 58.6321 25.8752Z" fill="#F9F9F9"/>
<path d="M61.1399 22.0688V22.7344H60.5803V23.4625H61.1399V25.3345C61.1399 26.2913 61.5751 26.6033 62.2591 26.6033C62.6528 26.6033 63.0466 26.4785 63.2746 26.3537L63.1295 25.6049C62.9845 25.6881 62.7565 25.7505 62.5492 25.7505C62.2798 25.7505 62.1554 25.5841 62.1554 25.3137V23.4625H63.171V22.7344H62.1554V21.7568L61.1399 22.0688Z" fill="#F9F9F9"/>
<path d="M63.7098 23.3584L64.145 23.4624V26.52H65.1399V22.7344H63.7098V23.3584Z" fill="#F9F9F9"/>
<path d="M65.1399 21.1953H64.1243V22.1105H65.1399V21.1953Z" fill="#F9F9F9"/>
<path d="M65.8445 27.0608C65.8445 27.768 66.6528 28.1008 67.4404 28.1008C68.3938 28.1008 69.2228 27.6224 69.2228 26.728C69.2228 25.3136 66.8394 25.792 66.8394 25.376C66.8394 25.272 66.9015 25.2096 67.0259 25.168C67.1917 25.2096 67.3575 25.2304 67.5026 25.2304C68.1451 25.2304 69.057 24.856 69.057 23.9408C69.0363 23.6912 68.8497 23.504 68.6839 23.3376C68.9326 23.4208 69.2228 23.4624 69.3886 23.4624L69.4093 22.7136C68.7461 22.7136 67.9171 22.6304 67.5026 22.6304C66.9015 22.6304 65.9482 22.9216 65.9482 23.92C65.9482 24.4608 66.259 24.7728 66.6321 24.9808C66.2176 25.0016 65.9067 25.2512 65.9067 25.5632C65.9067 26 66.3834 26.1456 66.8394 26.208C66.2176 26.312 65.8445 26.5824 65.8445 27.0608ZM67.5026 23.3792C67.7927 23.3792 68.1658 23.504 68.1658 23.9408C68.1658 24.4192 67.7927 24.544 67.5026 24.544C67.2124 24.544 66.8186 24.4192 66.8186 23.9408C66.8186 23.4832 67.2124 23.3792 67.5026 23.3792ZM67.3575 26.2912C67.9585 26.3328 68.2487 26.4576 68.2487 26.7904C68.2487 27.1856 67.9378 27.4144 67.5026 27.4144C67.0881 27.4144 66.7979 27.1856 66.7979 26.832C66.7979 26.4784 66.9844 26.3328 67.3575 26.2912Z" fill="#F9F9F9"/>
<path d="M71.2332 24.253C70.3212 24.253 69.8031 24.669 69.8031 25.3762C69.8031 26.0834 70.3212 26.5826 71.0674 26.5826C71.6062 26.5826 71.9793 26.3122 72.1658 26.0626L72.3109 26.5202H72.9948V24.1074C72.9948 23.1506 72.5389 22.6514 71.4611 22.6514C70.8601 22.6514 70.342 22.797 69.9689 22.9634L70.2176 23.6706C70.5285 23.525 70.9015 23.421 71.3575 23.421C71.7513 23.421 72.0207 23.5666 72.0207 24.0658V24.253H71.2332ZM72.0207 25.6466C71.8342 25.7922 71.5855 25.8962 71.3575 25.8962C70.9844 25.8962 70.7979 25.6882 70.7979 25.3346C70.7979 25.0434 70.9845 24.8562 71.399 24.8562H72.0207V25.6466Z" fill="#F9F9F9"/>
<path d="M75.5026 26.6036C76.0829 26.6036 76.5803 26.3956 76.7875 26.2708L76.601 25.5636C76.3523 25.7092 75.9793 25.8548 75.5855 25.8548C75.0466 25.8548 74.715 25.5012 74.715 24.6484C74.715 23.7956 75.0466 23.442 75.5647 23.442C75.8963 23.442 76.2487 23.5044 76.5181 23.6708L76.7875 22.9844C76.4145 22.7764 76 22.6724 75.5026 22.6724C74.3834 22.6724 73.7202 23.4004 73.7202 24.6484C73.6995 25.9588 74.3834 26.6036 75.5026 26.6036Z" fill="#F9F9F9"/>
<path d="M78.6735 21.1953H77.658V22.1105H78.6735V21.1953Z" fill="#F9F9F9"/>
<path d="M77.2643 23.3584L77.6995 23.4624V26.52H78.6943V22.7344H77.2643V23.3584Z" fill="#F9F9F9"/>
<path d="M80.228 22.1523L82.1969 21.7571L82.0725 21.0083L80.1244 21.5699L80.228 22.1523Z" fill="#F9F9F9"/>
<path d="M79.3782 24.6066C79.3782 25.8962 80.0207 26.5826 81.1399 26.5826C82.259 26.5826 82.9015 25.8962 82.9015 24.6066C82.9015 23.5042 82.2798 22.6514 81.1399 22.6514C80 22.6514 79.3782 23.5042 79.3782 24.6066ZM81.886 24.6066C81.886 25.501 81.6373 25.8338 81.1399 25.8338C80.6425 25.8338 80.4145 25.4802 80.4145 24.6066C80.4145 23.733 80.6839 23.3794 81.1399 23.3794C81.5958 23.3794 81.886 23.7122 81.886 24.6066Z" fill="#F9F9F9"/>
<path d="M84.601 23.65C84.7875 23.5252 84.9948 23.4212 85.2642 23.4212C85.7202 23.4212 85.9481 23.6916 85.9481 24.274V26.5204H86.9637V24.1908C86.9637 23.234 86.5906 22.6724 85.6373 22.6724C85.0777 22.6724 84.6632 22.922 84.4352 23.1716L84.2901 22.7348H83.6062V26.5204H84.6217L84.601 23.65Z" fill="#F9F9F9"/>
<path d="M44.2694 35.3397C43.9171 35.3397 43.6062 35.0901 43.5648 35.0693H43.4819L43.171 35.7557C43.3368 35.9013 43.8135 36.1301 44.228 36.1301C45.0155 36.1301 45.5544 35.7349 45.8653 34.6325L47.0259 30.7637H46.0311L45.2228 33.9461H45.2021L44.3938 30.7637H43.2539L44.3731 34.5909L45.0777 34.4661L45.057 34.5701C44.9326 35.0485 44.6839 35.3397 44.2694 35.3397Z" fill="#F9F9F9"/>
<path d="M49.1606 34.341C49.6373 34.4866 50.2591 34.6114 51.0052 34.6114C52.6218 34.6114 53.3472 33.5714 53.3472 31.8866C53.3472 29.9521 52.3938 29.3281 50.8808 29.3281H49.1399L49.1606 34.341ZM50.1762 30.1393H50.8601C51.8964 30.1393 52.2902 30.6177 52.2902 31.8658C52.2902 33.3634 51.7513 33.7586 51.0674 33.7586C50.6943 33.7586 50.3627 33.6962 50.1762 33.6546V30.1393Z" fill="#F9F9F9"/>
<path d="M55.772 30.6802C54.57 30.6802 54.0104 31.4706 54.0104 32.6354C54.0104 33.8834 54.6943 34.6114 55.8757 34.6114C56.4767 34.6114 56.9948 34.4034 57.3057 34.237L57.1192 33.5298C56.7876 33.6962 56.3938 33.8418 56 33.8418C55.3783 33.8418 55.0259 33.509 55.0259 32.9058H57.3679V32.469C57.3472 31.533 56.8912 30.6802 55.772 30.6802ZM55.0052 32.3234C55.0052 31.8658 55.2124 31.4082 55.7099 31.4082C56.2073 31.4082 56.3731 31.8242 56.3731 32.3234H55.0052Z" fill="#F9F9F9"/>
<path d="M59.4197 31.4082C59.7513 31.4082 60.0829 31.4914 60.3316 31.5954L60.4767 30.8674C60.2073 30.7634 59.8135 30.6802 59.4197 30.6802C58.4042 30.6802 57.9896 31.1794 57.9896 31.741C57.9896 33.0306 59.6062 32.8018 59.6062 33.4882C59.6062 33.717 59.3782 33.9042 59.0466 33.9042C58.715 33.9042 58.3213 33.7586 58.1555 33.6338L57.9482 34.341C58.1969 34.4866 58.6321 34.6114 59.0881 34.6114C60.0622 34.6114 60.5803 34.0706 60.5803 33.3842C60.5803 32.157 58.943 32.3234 58.943 31.741C58.9016 31.533 59.0881 31.4082 59.4197 31.4082Z" fill="#F9F9F9"/>
<path d="M61.2435 30.9925L61.4922 31.6997C61.8031 31.5541 62.1761 31.4501 62.6321 31.4501C63.0259 31.4501 63.2953 31.5957 63.2953 32.0949V32.2821H62.5077C61.5958 32.2821 61.0777 32.6981 61.0777 33.4053C61.0777 34.1125 61.5958 34.6117 62.3419 34.6117C62.8808 34.6117 63.2539 34.3413 63.4404 34.0917L63.5855 34.5285H64.2694V32.1157C64.2694 31.1589 63.8134 30.6597 62.7357 30.6597C62.1347 30.6805 61.6166 30.8261 61.2435 30.9925ZM63.2953 33.6757C63.1088 33.8213 62.8601 33.9253 62.6321 33.9253C62.259 33.9253 62.0725 33.7173 62.0725 33.3637C62.0725 33.0725 62.259 32.8853 62.6735 32.8853H63.2953V33.6757Z" fill="#F9F9F9"/>
<path d="M65.057 34.5492H66.0518V31.8036C66.2176 31.658 66.4663 31.554 66.7357 31.554C66.9015 31.554 67.0881 31.5748 67.2124 31.6164L67.2331 30.7636C67.1502 30.7428 67.0051 30.7012 66.7979 30.7012C66.3419 30.7012 66.0103 31.0132 65.886 31.2836H65.8653L65.7616 30.7844H65.057V34.5492Z" fill="#F9F9F9"/>
<path d="M68.5596 31.2628H68.5389L68.4352 30.7636H67.7306V34.5492H68.7254V31.8036C68.8912 31.658 69.1399 31.554 69.4093 31.554C69.5751 31.554 69.7617 31.5748 69.886 31.6164L69.9067 30.7636C69.8238 30.7428 69.6788 30.7012 69.4715 30.7012C69.0155 30.7012 68.6839 31.0132 68.5596 31.2628Z" fill="#F9F9F9"/>
<path d="M70.0518 32.6354C70.0518 33.925 70.6943 34.6114 71.8134 34.6114C72.9326 34.6114 73.5751 33.925 73.5751 32.6354C73.5751 31.5122 72.9533 30.6802 71.8134 30.6802C70.6735 30.6802 70.0518 31.533 70.0518 32.6354ZM72.5596 32.6354C72.5596 33.5506 72.3109 33.8626 71.8134 33.8626C71.316 33.8626 71.0881 33.509 71.0881 32.6354C71.0881 31.7618 71.3575 31.4082 71.8134 31.4082C72.2694 31.4082 72.5596 31.741 72.5596 32.6354Z" fill="#F9F9F9"/>
<path d="M74.2798 29.2241V33.5506C74.2798 34.2162 74.5492 34.6322 75.316 34.6322C75.5854 34.6322 75.8756 34.5698 75.8756 34.5698V33.8626C75.4611 33.8626 75.2746 33.821 75.2746 33.4882V29.2241H74.2798Z" fill="#F9F9F9"/>
<path d="M76.4767 33.5506C76.4767 34.2162 76.7461 34.6322 77.5129 34.6322C77.7824 34.6322 78.0725 34.5698 78.0725 34.5698V33.8626C77.658 33.8626 77.4715 33.821 77.4715 33.4882V29.2241H76.4767V33.5506Z" fill="#F9F9F9"/>
<path d="M82.0311 32.6354C82.0311 31.5122 81.4093 30.6802 80.2694 30.6802C79.1295 30.6802 78.5078 31.533 78.5078 32.6354C78.5078 33.925 79.1503 34.6114 80.2694 34.6114C81.3886 34.6114 82.0311 33.925 82.0311 32.6354ZM79.544 32.6354C79.544 31.7202 79.8135 31.4082 80.2694 31.4082C80.7254 31.4082 81.0155 31.7202 81.0155 32.6354C81.0155 33.5506 80.7668 33.8626 80.2694 33.8626C79.772 33.8626 79.544 33.5298 79.544 32.6354Z" fill="#F9F9F9"/>
<path d="M45.7202 41.0806C45.7202 41.0806 45.3471 42.5366 45.1606 43.4518H45.1399C44.9741 42.5366 44.6632 41.0806 44.6632 41.0806H43.7305L43.6269 43.951H44.1243L44.1658 41.5382H44.1865C44.2487 41.8502 44.2901 42.0582 44.3316 42.2246L44.7254 43.951H45.5337L45.9482 42.2246C45.9896 42.0582 46.0311 41.8294 46.0932 41.5382H46.114L46.1761 43.951H46.7979L46.6943 41.0806H45.7202Z" fill="#F9F9F9"/>
<path d="M47.9585 41.0181H47.3989V41.5173H47.9585V41.0181Z" fill="#F9F9F9"/>
<path d="M47.171 42.2242L47.4197 42.2658V43.9506H47.9586V41.8706H47.171V42.2242Z" fill="#F9F9F9"/>
<path d="M48.8497 41.871H48.4767V43.951H49.0362V42.3702C49.1399 42.3078 49.2642 42.2454 49.4093 42.2454C49.658 42.2454 49.7824 42.391 49.7824 42.703V43.9302H50.3419V42.6406C50.3419 42.1206 50.1347 41.8086 49.6166 41.8086C49.3057 41.8086 49.0777 41.9542 48.9533 42.0998L48.8497 41.871Z" fill="#F9F9F9"/>
<path d="M51.4818 41.0181H50.9223V41.5173H51.4818V41.0181Z" fill="#F9F9F9"/>
<path d="M51.4819 41.8706H50.6943V42.2242L50.943 42.2658V43.9506H51.4819V41.8706Z" fill="#F9F9F9"/>
<path d="M52.4767 42.4115C52.4767 42.2867 52.5596 42.2243 52.7669 42.2243C52.9741 42.2243 53.1192 42.2659 53.2643 42.3283L53.3472 41.9331C53.2021 41.8707 52.9741 41.8291 52.7669 41.8291C52.2073 41.8291 51.9793 42.0995 51.9793 42.4115C51.9793 43.1187 52.8705 42.9939 52.8705 43.3683C52.8705 43.4931 52.7461 43.5971 52.5596 43.5971C52.3731 43.5971 52.1658 43.5139 52.0622 43.4515L51.9378 43.8467C52.0829 43.9299 52.3109 43.9923 52.5596 43.9923C53.0985 43.9923 53.3679 43.7011 53.3679 43.3267C53.3679 42.6403 52.4767 42.7443 52.4767 42.4115Z" fill="#F9F9F9"/>
<path d="M54.5699 43.9925C54.7979 43.9925 55.0051 43.9301 55.1295 43.8469L55.0466 43.4309C54.9637 43.4725 54.8393 43.5141 54.7357 43.5141C54.5906 43.5141 54.5077 43.4309 54.5077 43.2853V42.2661H55.0673V41.8709H54.5077V41.3301L53.9689 41.5173V41.8709H53.658V42.2661H53.9689V43.3061C53.9481 43.8261 54.1968 43.9925 54.5699 43.9925Z" fill="#F9F9F9"/>
<path d="M57.1399 42.8275C57.1399 42.3075 56.8912 41.8291 56.2694 41.8291C55.6062 41.8291 55.2953 42.2659 55.2953 42.9107C55.2953 43.5971 55.6684 43.9923 56.3109 43.9923C56.6425 43.9923 56.9119 43.8883 57.0984 43.7843L56.9948 43.3891C56.8083 43.4723 56.601 43.5555 56.3938 43.5555C56.0415 43.5555 55.8549 43.3683 55.8549 43.0355H57.1399V42.8275ZM55.8549 42.7235C55.8549 42.4739 55.9585 42.2243 56.2487 42.2243C56.5389 42.2243 56.6218 42.4531 56.6218 42.7235H55.8549Z" fill="#F9F9F9"/>
<path d="M58.0104 42.1411L57.9275 41.8499H57.5337V43.9299H58.0726V42.4323C58.1762 42.3491 58.3005 42.2867 58.4456 42.2867C58.5492 42.2867 58.6321 42.3075 58.6943 42.3283L58.715 41.8499C58.6736 41.8291 58.5907 41.8291 58.4663 41.8291C58.2591 41.8291 58.0725 41.9955 58.0104 42.1411Z" fill="#F9F9F9"/>
<path d="M59.772 43.9506V41.8706H58.9845V42.2242L59.2332 42.2658V43.9506H59.772Z" fill="#F9F9F9"/>
<path d="M59.772 41.0181H59.2124V41.5173H59.772V41.0181Z" fill="#F9F9F9"/>
<path d="M60.2072 42.9107C60.2072 43.6179 60.5596 43.9923 61.1813 43.9923C61.8031 43.9923 62.1554 43.6179 62.1554 42.9107C62.1554 42.3075 61.8031 41.8291 61.1813 41.8291C60.5596 41.8291 60.2072 42.2867 60.2072 42.9107ZM61.1606 42.2243C61.4093 42.2243 61.5751 42.3907 61.5751 42.8899C61.5751 43.3891 61.4508 43.5763 61.1606 43.5763C60.8705 43.5763 60.7668 43.3891 60.7668 42.8899C60.7668 42.3907 60.9119 42.2243 61.1606 42.2243Z" fill="#F9F9F9"/>
<path d="M64.8083 43.7221L64.8705 43.9509H65.3264V41.0181H64.7876V41.6421C64.7876 41.8085 64.8083 41.9125 64.829 42.0165C64.7254 41.8917 64.5388 41.8085 64.3109 41.8085C63.8135 41.8085 63.4197 42.2037 63.4197 42.8901C63.4197 43.6389 63.7927 43.9717 64.2694 43.9717C64.5389 43.9925 64.7254 43.8469 64.8083 43.7221ZM63.9793 42.9109C63.9793 42.4325 64.1451 42.2453 64.4145 42.2453C64.5803 42.2453 64.7047 42.2869 64.7876 42.3493V43.4101C64.6839 43.5141 64.5389 43.5973 64.3938 43.5973C64.1243 43.5973 63.9793 43.4101 63.9793 42.9109Z" fill="#F9F9F9"/>
<path d="M65.7409 42.9108C65.7409 43.5972 66.114 43.9924 66.7564 43.9924C67.0881 43.9924 67.3575 43.8884 67.544 43.7844L67.4404 43.3892C67.2539 43.4724 67.0466 43.5556 66.8393 43.5556C66.487 43.5556 66.3005 43.3684 66.3005 43.0356H67.5855V42.786C67.5855 42.266 67.3368 41.7876 66.715 41.7876C66.0518 41.8292 65.7409 42.266 65.7409 42.9108ZM67.0466 42.7236H66.3005C66.3005 42.474 66.4041 42.2244 66.6943 42.2244C66.9844 42.2244 67.0466 42.4532 67.0466 42.7236Z" fill="#F9F9F9"/>
<path d="M70.1554 41.5383C70.4456 41.5383 70.715 41.6215 70.8601 41.7463L71.0673 41.2887C70.8393 41.1223 70.487 41.0391 70.0932 41.0391C69.2849 41.0391 68.8497 41.6007 68.8497 42.4951C68.8497 43.4519 69.2849 43.9927 70.0932 43.9927C70.4663 43.9927 70.7979 43.8887 71.0673 43.6807L70.8808 43.2231C70.6943 43.3687 70.4041 43.4935 70.1347 43.4935C69.6787 43.4935 69.43 43.1607 69.43 42.4951C69.4507 41.8711 69.6995 41.5383 70.1554 41.5383Z" fill="#F9F9F9"/>
<path d="M72.0621 41.0181H71.5026V41.5173H72.0621V41.0181Z" fill="#F9F9F9"/>
<path d="M71.2746 42.2242L71.5233 42.2658V43.9506H72.0829V41.8706H71.2746V42.2242Z" fill="#F9F9F9"/>
<path d="M73.4715 41.8291C72.8083 41.8291 72.4974 42.2659 72.4974 42.9107C72.4974 43.5971 72.8705 43.9923 73.513 43.9923C73.8446 43.9923 74.114 43.8883 74.3005 43.7843L74.1969 43.3891C74.0104 43.4723 73.8031 43.5555 73.5959 43.5555C73.2435 43.5555 73.057 43.3683 73.057 43.0355H74.342V42.7859C74.342 42.2867 74.0933 41.8291 73.4715 41.8291ZM73.057 42.7235C73.057 42.4739 73.1606 42.2243 73.4508 42.2243C73.7409 42.2243 73.8238 42.4531 73.8238 42.7235H73.057Z" fill="#F9F9F9"/>
<path d="M76.601 43.9507V42.6611C76.601 42.1411 76.3937 41.8291 75.8756 41.8291C75.5647 41.8291 75.3367 41.9747 75.2124 42.1203L75.1295 41.8915H74.7564V43.9715H75.316V42.3907C75.4197 42.3283 75.544 42.2659 75.6891 42.2659C75.9378 42.2659 76.0621 42.4115 76.0621 42.7235V43.9507H76.601Z" fill="#F9F9F9"/>
<path d="M78.715 43.8051L78.6114 43.4099C78.4871 43.4931 78.2591 43.5763 78.0518 43.5763C77.7409 43.5763 77.5751 43.3891 77.5751 42.9107C77.5751 42.4323 77.7617 42.2451 78.0518 42.2451C78.2383 42.2451 78.4249 42.2867 78.57 42.3699L78.715 41.9955C78.5078 41.8707 78.2798 41.8291 78.0104 41.8291C77.3886 41.8291 77.0155 42.2243 77.0155 42.9107C77.0155 43.6387 77.3886 43.9923 78.0104 43.9923C78.3005 43.9923 78.5907 43.8675 78.715 43.8051Z" fill="#F9F9F9"/>
<path d="M79.0052 42.2242L79.2331 42.2658V43.9506H79.7927V41.8706H79.0052V42.2242Z" fill="#F9F9F9"/>
<path d="M79.7927 41.0181H79.2332V41.5173H79.7927V41.0181Z" fill="#F9F9F9"/>
<path d="M81.4922 43.7014L81.5751 43.951H81.9482V42.6198C81.9482 42.079 81.6995 41.8086 81.0984 41.8086C80.7668 41.8086 80.4974 41.8918 80.2901 41.975L80.4352 42.3702C80.601 42.287 80.8083 42.2246 81.057 42.2246C81.2642 42.2246 81.43 42.3078 81.43 42.5782V42.6822H80.9948C80.4974 42.6822 80.2072 42.911 80.2072 43.3062C80.2072 43.7014 80.4974 43.9718 80.9119 43.9718C81.1813 43.9926 81.3886 43.847 81.4922 43.7014ZM80.7461 43.3062C80.7461 43.1398 80.8497 43.0358 81.0777 43.0358H81.4093V43.4726C81.3057 43.5558 81.1813 43.6182 81.0362 43.6182C80.829 43.6182 80.7461 43.4934 80.7461 43.3062Z" fill="#F9F9F9"/>
<path d="M82.3834 43.8887L82.5077 43.9511C82.5077 44.1591 82.4456 44.2215 82.3834 44.2423V44.5335C82.7357 44.4919 82.943 44.3463 82.943 43.9927V43.3687H82.3834V43.8887Z" fill="#F9F9F9"/>
<path d="M43.4611 47.0087H44.1451V49.4007H44.7254V47.0087H45.43V46.5303H43.4611V47.0087Z" fill="#F9F9F9"/>
<path d="M47.0466 48.2772C47.0466 47.7572 46.7979 47.2788 46.1762 47.2788C45.513 47.2788 45.2021 47.7156 45.2021 48.3604C45.2021 49.0468 45.5751 49.442 46.2176 49.442C46.5492 49.442 46.8187 49.338 47.0052 49.234L46.9016 48.8388C46.715 48.922 46.5078 49.0052 46.3005 49.0052C45.9482 49.0052 45.7617 48.818 45.7617 48.4852H47.0466V48.2772ZM45.7409 48.1732C45.7409 47.9236 45.8653 47.674 46.1347 47.674C46.4042 47.674 46.5078 47.9028 46.5078 48.1732H45.7409Z" fill="#F9F9F9"/>
<path d="M48.3938 49.442C48.7046 49.442 48.9948 49.3172 49.0984 49.2548L48.9948 48.8596C48.8704 48.9428 48.6425 49.026 48.4352 49.026C48.1451 49.026 47.9585 48.8388 47.9585 48.3604C47.9585 47.882 48.1451 47.6948 48.4352 47.6948C48.6217 47.6948 48.8083 47.7364 48.9533 47.8196L49.0984 47.4452C48.8912 47.3204 48.6632 47.2788 48.3938 47.2788C47.772 47.2788 47.3989 47.674 47.3989 48.3604C47.3989 49.0884 47.772 49.442 48.3938 49.442Z" fill="#F9F9F9"/>
<path d="M51.316 49.4004V48.1108C51.316 47.5908 51.1088 47.2788 50.5907 47.2788C50.2798 47.2788 50.0518 47.4244 49.9274 47.57L49.8445 47.3412H49.4715V49.4212H50.0311V47.8404C50.1347 47.778 50.259 47.7156 50.4041 47.7156C50.6528 47.7156 50.7772 47.8612 50.7772 48.1732V49.4004H51.316Z" fill="#F9F9F9"/>
<path d="M52.6632 47.2788C52.0207 47.2788 51.6891 47.7364 51.6891 48.3604C51.6891 49.0676 52.0414 49.442 52.6632 49.442C53.2849 49.442 53.6373 49.0676 53.6373 48.3604C53.6373 47.7364 53.2849 47.2788 52.6632 47.2788ZM52.6632 49.0468C52.3938 49.0468 52.2694 48.8596 52.2694 48.3604C52.2694 47.8612 52.4145 47.6948 52.6632 47.6948C52.9119 47.6948 53.0777 47.8612 53.0777 48.3604C53.0777 48.8596 52.9326 49.0468 52.6632 49.0468Z" fill="#F9F9F9"/>
<path d="M54.6321 49.442C54.7772 49.442 54.943 49.4004 54.943 49.4004V49.0052C54.715 49.0052 54.6114 48.9844 54.6114 48.7972V46.4468H54.0725V48.818C54.0518 49.2132 54.1969 49.442 54.6321 49.442Z" fill="#F9F9F9"/>
<path d="M57.1399 48.3604C57.1399 47.7572 56.7876 47.2788 56.1658 47.2788C55.544 47.2788 55.1917 47.7364 55.1917 48.3604C55.1917 49.0676 55.544 49.442 56.1658 49.442C56.7876 49.442 57.1399 49.0676 57.1399 48.3604ZM56.1658 49.0468C55.8964 49.0468 55.772 48.8596 55.772 48.3604C55.772 47.8612 55.9171 47.6948 56.1658 47.6948C56.4145 47.6948 56.5803 47.8612 56.5803 48.3604C56.5803 48.8596 56.456 49.0468 56.1658 49.0468Z" fill="#F9F9F9"/>
<path d="M57.4715 49.7126C57.4715 50.087 57.9067 50.295 58.342 50.295C58.8601 50.295 59.3368 50.0246 59.3368 49.5462C59.3368 48.7558 58.0104 49.0262 58.0104 48.7974C58.0104 48.735 58.0518 48.7142 58.114 48.6726C58.1969 48.6934 58.3005 48.7142 58.3834 48.7142C58.7357 48.7142 59.2332 48.5062 59.2332 48.007C59.2124 47.8822 59.1295 47.7574 59.0259 47.6742C59.171 47.7158 59.3161 47.7366 59.4197 47.7574V47.3414C59.0674 47.3414 58.5907 47.2998 58.3627 47.2998C58.0311 47.2998 57.5129 47.4662 57.5129 48.007C57.5129 48.2982 57.6788 48.4854 57.886 48.5894C57.658 48.6102 57.4922 48.735 57.4922 48.9014C57.4922 49.151 57.7409 49.2342 58.0104 49.255C57.6788 49.2966 57.4715 49.4422 57.4715 49.7126ZM58.3834 47.6742C58.5492 47.6742 58.7565 47.7366 58.7565 47.9862C58.7565 48.2566 58.5492 48.319 58.3834 48.319C58.2176 48.319 58.0104 48.2566 58.0104 47.9862C58.0104 47.7366 58.2383 47.6742 58.3834 47.6742ZM58.3005 49.2758C58.6321 49.2966 58.7979 49.359 58.7979 49.5462C58.7979 49.7542 58.6321 49.879 58.3834 49.879C58.1554 49.879 57.9896 49.7542 57.9896 49.567C57.9896 49.3798 58.114 49.2966 58.3005 49.2758Z" fill="#F9F9F9"/>
<path d="M60.5181 49.4003V47.3203H59.7305V47.6739L59.9585 47.7155V49.4003H60.5181Z" fill="#F9F9F9"/>
<path d="M60.6839 46.3843L59.6062 46.6755L59.6684 47.0083L60.7461 46.7795L60.6839 46.3843Z" fill="#F9F9F9"/>
<path d="M62.2176 49.1511L62.3005 49.4007H62.6736V48.0695C62.6736 47.5287 62.4249 47.2583 61.8238 47.2583C61.4922 47.2583 61.2228 47.3415 61.0155 47.4247L61.1606 47.8199C61.3264 47.7367 61.5337 47.6743 61.7824 47.6743C61.9896 47.6743 62.1554 47.7575 62.1554 48.0279V48.1319H61.7202C61.2228 48.1319 60.9326 48.3607 60.9326 48.7559C60.9326 49.1511 61.2228 49.4215 61.6373 49.4215C61.9274 49.4423 62.1347 49.2967 62.2176 49.1511ZM61.4715 48.7559C61.4715 48.5895 61.5751 48.4855 61.8031 48.4855H62.1347V48.9223C62.0311 49.0055 61.9067 49.0679 61.7616 49.0679C61.5751 49.0679 61.4715 48.9639 61.4715 48.7559Z" fill="#F9F9F9"/>
<path d="M63.1088 49.3384L63.2331 49.4008C63.2331 49.6088 63.171 49.6712 63.1088 49.692V49.9832C63.4611 49.9416 63.6684 49.796 63.6684 49.4424V48.8184H63.1088V49.3384Z" fill="#F9F9F9"/>
<path d="M64.9741 47.9653C64.9741 48.9222 65.4093 49.463 66.2176 49.463C66.5907 49.463 66.9223 49.359 67.1917 49.151L67.0052 48.6934C66.8186 48.839 66.5285 48.9638 66.2591 48.9638C65.8031 48.9638 65.5544 48.631 65.5544 47.9653C65.5544 47.3413 65.7824 47.0085 66.2591 47.0085C66.5492 47.0085 66.8187 47.0917 66.9637 47.2165L67.171 46.7589C66.943 46.5925 66.5907 46.5093 66.1969 46.5093C65.4093 46.4885 64.9741 47.0709 64.9741 47.9653Z" fill="#F9F9F9"/>
<path d="M68.3108 47.2788C67.6684 47.2788 67.3367 47.7364 67.3367 48.3604C67.3367 49.0676 67.6891 49.442 68.3108 49.442C68.9326 49.442 69.2849 49.0676 69.2849 48.3604C69.2849 47.7364 68.9326 47.2788 68.3108 47.2788ZM68.3108 49.0468C68.0414 49.0468 67.9171 48.8596 67.9171 48.3604C67.9171 47.8612 68.0621 47.6948 68.3108 47.6948C68.5595 47.6948 68.7254 47.8612 68.7254 48.3604C68.7254 48.8596 68.5803 49.0468 68.3108 49.0468Z" fill="#F9F9F9"/>
<path d="M70.1554 47.57L70.0725 47.3412H69.6995V49.4212H70.2591V47.8404C70.3627 47.778 70.487 47.7156 70.6321 47.7156C70.8808 47.7156 71.0052 47.8612 71.0052 48.1732V49.4004H71.5648V48.1108C71.5648 47.5908 71.3575 47.2788 70.8394 47.2788C70.5078 47.2788 70.2798 47.4244 70.1554 47.57Z" fill="#F9F9F9"/>
<path d="M71.9171 48.3604C71.9171 49.0676 72.2694 49.442 72.8912 49.442C73.5129 49.442 73.8653 49.0676 73.8653 48.3604C73.8653 47.7572 73.5129 47.2788 72.8912 47.2788C72.2694 47.2788 71.9171 47.7572 71.9171 48.3604ZM72.8912 47.674C73.1399 47.674 73.3057 47.8404 73.3057 48.3396C73.3057 48.8388 73.1813 49.026 72.8912 49.026C72.601 49.026 72.4974 48.8388 72.4974 48.3396C72.4974 47.8404 72.6217 47.674 72.8912 47.674Z" fill="#F9F9F9"/>
<path d="M75.2539 49.026C74.943 49.026 74.7772 48.8388 74.7772 48.3604C74.7772 47.882 74.9637 47.6948 75.2539 47.6948C75.4404 47.6948 75.6269 47.7364 75.772 47.8196L75.9171 47.4452C75.7098 47.3204 75.4819 47.2788 75.2124 47.2788C74.5907 47.2788 74.2176 47.674 74.2176 48.3604C74.2176 49.0884 74.5907 49.442 75.2124 49.442C75.5233 49.442 75.8135 49.3172 75.9171 49.2548L75.8135 48.8596C75.6891 48.9428 75.4819 49.026 75.2539 49.026Z" fill="#F9F9F9"/>
<path d="M76.2072 47.6739L76.4559 47.7155V49.4003H76.9948V47.3203H76.2072V47.6739Z" fill="#F9F9F9"/>
<path d="M76.9948 46.4678H76.4352V46.967H76.9948V46.4678Z" fill="#F9F9F9"/>
<path d="M80.6217 49.4004V48.1108C80.6217 47.5908 80.4559 47.2788 79.8549 47.2788C79.5647 47.2788 79.3575 47.4244 79.2331 47.57C79.1295 47.3828 78.9223 47.2788 78.5907 47.2788C78.3005 47.2788 78.0933 47.4244 77.9689 47.57L77.8653 47.3204H77.5129V49.4004H78.0725V47.8404C78.1762 47.778 78.2798 47.7156 78.4249 47.7156C78.6736 47.7156 78.7979 47.8612 78.7979 48.1732V49.4004H79.3575V48.1108C79.3575 48.0068 79.3575 47.9028 79.3368 47.8196C79.4404 47.7572 79.544 47.6948 79.6891 47.6948C79.9378 47.6948 80.0829 47.8404 80.0829 48.1524V49.3796L80.6217 49.4004Z" fill="#F9F9F9"/>
<path d="M81.7823 46.4678H81.2228V46.967H81.7823V46.4678Z" fill="#F9F9F9"/>
<path d="M81.7824 49.4003V47.3203H80.9948V47.6739L81.2435 47.7155V49.4003H81.7824Z" fill="#F9F9F9"/>
<path d="M82.2176 48.3605C82.2176 49.0469 82.5906 49.4421 83.2331 49.4421C83.5647 49.4421 83.8342 49.3381 84.0207 49.2341L83.9171 48.8389C83.7305 48.9221 83.5233 49.0053 83.316 49.0053C82.9637 49.0053 82.7772 48.8181 82.7772 48.4853H84.0621V48.2357C84.0621 47.7157 83.8134 47.2373 83.1917 47.2373C82.5077 47.2789 82.2176 47.7157 82.2176 48.3605ZM83.1502 47.6949C83.4404 47.6949 83.5233 47.9237 83.5233 48.1941H82.7772C82.7564 47.9445 82.8808 47.6949 83.1502 47.6949Z" fill="#F9F9F9"/>
<path d="M85.5959 47.2788C85.285 47.2788 85.057 47.4244 84.9326 47.57L84.8497 47.3412H84.4767V49.4212H85.0363V47.8404C85.1399 47.778 85.2642 47.7156 85.4093 47.7156C85.658 47.7156 85.7824 47.8612 85.7824 48.1732V49.4004H86.342V48.1108C86.3212 47.5908 86.114 47.2788 85.5959 47.2788Z" fill="#F9F9F9"/>
<path d="M86.9222 46.9667V47.3203H86.6114V47.7155H86.9222V48.7555C86.9222 49.2755 87.1709 49.4627 87.5233 49.4627C87.7513 49.4627 87.9585 49.4003 88.0829 49.3171L88 48.9011C87.9171 48.9427 87.7927 48.9843 87.6891 48.9843C87.544 48.9843 87.4611 48.9011 87.4611 48.7555V47.7363H88.0207V47.3411H87.4611V46.8003L86.9222 46.9667Z" fill="#F9F9F9"/>
<path d="M89.2228 49.442C89.8445 49.442 90.1969 49.0676 90.1969 48.3604C90.1969 47.7572 89.8445 47.2788 89.2228 47.2788C88.601 47.2788 88.2487 47.7364 88.2487 48.3604C88.2487 49.0676 88.601 49.442 89.2228 49.442ZM89.2228 47.674C89.4715 47.674 89.6373 47.8404 89.6373 48.3396C89.6373 48.8388 89.5129 49.026 89.2228 49.026C88.9326 49.026 88.829 48.8388 88.829 48.3396C88.829 47.8404 88.9741 47.674 89.2228 47.674Z" fill="#F9F9F9"/>
<path d="M45.4093 53.7269C45.4093 53.2069 45.1606 52.7285 44.5388 52.7285C43.8756 52.7285 43.5647 53.1653 43.5647 53.8101C43.5647 54.4965 43.9378 54.8917 44.5803 54.8917C44.9119 54.8917 45.1813 54.7877 45.3679 54.6837L45.2642 54.2885C45.0777 54.3925 44.8704 54.4549 44.6632 54.4549C44.3109 54.4549 44.1243 54.2677 44.1243 53.9349H45.4093V53.7269ZM44.1243 53.6437C44.1243 53.3941 44.2487 53.1445 44.5181 53.1445C44.7875 53.1445 44.8912 53.3733 44.8912 53.6437H44.1243Z" fill="#F9F9F9"/>
<path d="M47.399 52.0005H46.8394V54.8709H47.399V52.0005Z" fill="#F9F9F9"/>
<path d="M49.8446 54.8501V53.5605C49.8446 53.0405 49.6373 52.7285 49.1192 52.7285C48.8083 52.7285 48.5803 52.8741 48.456 53.0197L48.3731 52.7909H48V54.8709H48.5596V53.3109C48.6632 53.2485 48.7876 53.1861 48.9326 53.1861C49.1813 53.1861 49.3057 53.3317 49.3057 53.6437V54.8709L49.8446 54.8501Z" fill="#F9F9F9"/>
<path d="M51.5648 53.6229V54.8501H52.1244V53.5605C52.1244 53.0405 51.9171 52.7285 51.399 52.7285C51.0881 52.7285 50.8601 52.8741 50.7358 53.0197L50.6529 52.7909H50.2798V54.8709H50.8394V53.3109C50.943 53.2485 51.0674 53.1861 51.2124 53.1861C51.4404 53.1653 51.5648 53.3109 51.5648 53.6229Z" fill="#F9F9F9"/>
<path d="M53.4715 52.7285C52.829 52.7285 52.4974 53.1861 52.4974 53.8101C52.4974 54.5173 52.8497 54.8917 53.4715 54.8917C54.0933 54.8917 54.4456 54.5173 54.4456 53.8101C54.4456 53.2069 54.0933 52.7285 53.4715 52.7285ZM53.4715 54.4965C53.2021 54.4965 53.0777 54.3093 53.0777 53.8101C53.0777 53.3109 53.2228 53.1445 53.4715 53.1445C53.7202 53.1445 53.886 53.3109 53.886 53.8101C53.886 54.3093 53.7409 54.4965 53.4715 54.4965Z" fill="#F9F9F9"/>
<path d="M56.7047 52.77H56.1451L55.7099 54.5172H55.6891L55.2539 52.77H54.6321L55.2539 54.85H56.0622L56.7047 52.77Z" fill="#F9F9F9"/>
<path d="M57.1192 53.2904C57.285 53.2072 57.4922 53.1448 57.7409 53.1448C57.9482 53.1448 58.114 53.228 58.114 53.4984V53.6024H57.6787C57.1813 53.6024 56.8912 53.8312 56.8912 54.2264C56.8912 54.6216 57.1813 54.892 57.5958 54.892C57.886 54.892 58.0932 54.7464 58.1969 54.6008L58.2798 54.8504H58.6528V53.5192C58.6528 52.9784 58.4041 52.708 57.8031 52.708C57.4715 52.708 57.2021 52.7912 56.9948 52.8744L57.1192 53.2904ZM58.114 54.372C58.0103 54.4552 57.886 54.5176 57.7409 54.5176C57.5337 54.5176 57.43 54.4136 57.43 54.2056C57.43 54.0392 57.5337 53.9352 57.7616 53.9352H58.0932L58.114 54.372Z" fill="#F9F9F9"/>
<path d="M60.0622 54.8917C60.373 54.8917 60.6632 54.7669 60.7668 54.7045L60.6632 54.3093C60.5389 54.3925 60.3109 54.4757 60.1036 54.4757C59.7927 54.4757 59.6269 54.2885 59.6269 53.8101C59.6269 53.3317 59.8135 53.1445 60.1036 53.1445C60.2902 53.1445 60.4767 53.1861 60.6218 53.2693L60.7668 52.8949C60.5596 52.7701 60.3316 52.7285 60.0622 52.7285C59.4404 52.7285 59.0674 53.1237 59.0674 53.8101C59.0674 54.5381 59.4404 54.8917 60.0622 54.8917Z" fill="#F9F9F9"/>
<path d="M61.8446 54.85V52.77H61.057V53.1236L61.3057 53.1652V54.85H61.8446Z" fill="#F9F9F9"/>
<path d="M61.8445 51.9175H61.2849V52.4167H61.8445V51.9175Z" fill="#F9F9F9"/>
<path d="M63.2331 52.7285C62.5906 52.7285 62.259 53.1861 62.259 53.8101C62.259 54.5173 62.6114 54.8917 63.2331 54.8917C63.8549 54.8917 64.2072 54.5173 64.2072 53.8101C64.2072 53.2069 63.8756 52.7285 63.2331 52.7285ZM63.2331 54.4965C62.9637 54.4965 62.8393 54.3093 62.8393 53.8101C62.8393 53.3109 62.9844 53.1445 63.2331 53.1445C63.4818 53.1445 63.6476 53.3109 63.6476 53.8101C63.6476 54.3093 63.5233 54.4965 63.2331 54.4965Z" fill="#F9F9F9"/>
<path d="M63.8134 52.25L63.7513 51.834L62.6735 52.1252L62.7357 52.458L63.8134 52.25Z" fill="#F9F9F9"/>
<path d="M65.1813 53.2901C65.2849 53.2277 65.4093 53.1653 65.5544 53.1653C65.8031 53.1653 65.9274 53.3109 65.9274 53.6229V54.8501H66.487V53.5605C66.487 53.0405 66.2798 52.7285 65.7616 52.7285C65.4507 52.7285 65.2228 52.8741 65.0984 53.0197L65.0155 52.7909H64.6425V54.8709H65.202L65.1813 53.2901Z" fill="#F9F9F9"/>
<path d="M15.2746 10.109C15.8135 10.4002 16.5181 10.3586 16.7669 10.317C16.9534 10.2754 17.1606 10.213 17.3679 9.98416C17.4301 9.92175 17.4715 9.81775 17.5751 9.81775C17.5751 9.96336 17.5337 10.6914 18.342 11.045C18.342 11.0866 18.3627 11.1074 18.3627 11.1698C18.6114 12.189 19.2953 12.0642 19.3161 12.1266C19.0259 12.3138 19.1503 12.5842 19.2124 12.709C19.6684 12.5634 20.0207 12.5426 20.1244 12.5426C20.228 12.5426 20.5803 12.5634 21.0363 12.709C21.1192 12.6466 21.3057 12.4802 21.1606 12.189C21.0985 12.0434 20.9119 12.0434 20.9948 12.0226C21.9689 11.7938 22.4871 10.3794 22.4456 9.83855C22.943 10.2962 24.0622 10.421 24.8705 9.73455C25.3886 9.23535 25.6373 7.90413 24.7461 7.23852C24.2902 6.90572 23.4819 6.86412 22.9637 7.25933C22.7979 6.98892 22.5285 6.80172 22.2176 6.80172C22.2176 6.69772 22.2384 6.07371 21.8446 5.65771C21.3679 5.1377 20 5.0961 19.5026 5.65771C18.5285 5.4081 17.2643 5.86571 17.3264 7.40493C16.6425 7.13452 16.2487 7.13452 15.8964 7.15532C15.5648 7.19692 15.1088 7.48813 14.943 7.69613C14.8808 7.80013 14.7979 7.92493 14.7358 8.02893C14.6321 8.25774 14.5492 8.54894 14.57 8.86094C14.6114 9.42255 14.8808 9.88015 15.2746 10.109Z" fill="#F9F9F9"/>
<path d="M24 13.9569C24.0829 13.8737 24.0829 13.7905 24.0829 13.7281C24.0622 13.6449 24 13.5617 23.9793 13.5617C23.7928 13.4369 23.3368 13.1665 23.3368 13.1665L23.2954 13.1249H23.2539C23.2124 13.1249 23.171 13.1457 23.1088 13.2081C22.9845 13.3121 22.7565 13.4785 22.3627 13.4785C22.3005 13.4785 22.2176 13.4785 22.1555 13.4577C21.9482 13.4369 21.5959 13.2497 21.5959 13.2497C21.4922 13.1873 21.3472 13.1249 21.285 13.1041H21.2643C20.7047 12.8753 20.228 12.8545 20.0829 12.8545C19.9378 12.8545 19.4612 12.8753 18.9016 13.1041H18.8808C18.8601 13.1249 18.7979 13.1457 18.7358 13.1665L18.3834 13.3329C18.2591 13.3745 18.114 13.4369 18.0104 13.4577C17.9275 13.4785 17.8653 13.4785 17.8031 13.4785C17.4093 13.4785 17.1814 13.3121 17.057 13.2081C16.9948 13.1665 16.9534 13.1249 16.9119 13.1249H16.8705L16.8498 13.1457C16.8498 13.1457 16.3938 13.4161 16.2073 13.5409C16.1865 13.5617 16.1036 13.6033 16.0829 13.7073C16.0829 13.7697 16.0829 13.8321 16.1658 13.9153C16.1865 13.9569 16.8498 14.7265 16.8498 15.7457C16.8705 15.8705 16.9119 16.4737 16.3938 17.3681C16.3731 17.4097 15.7928 18.4706 16.4145 19.3858C16.4145 19.3858 16.8912 20.2594 18.2591 20.2594C18.3627 20.2594 19.3783 20.2802 19.7306 20.925C19.7513 20.9458 19.8964 21.2162 19.9793 21.341L20.0622 21.5074L20.1451 21.341C20.2073 21.2162 20.3731 20.9666 20.3938 20.925C20.7461 20.2802 21.7409 20.2594 21.8653 20.2594C23.2124 20.2594 23.6891 19.4066 23.6891 19.4066C24.3316 18.4706 23.7306 17.3889 23.7306 17.3889C23.2124 16.4945 23.2539 15.8705 23.2746 15.7457C23.3161 14.7473 24 13.9569 24 13.9569ZM22.7772 15.7457L21.0156 17.0145L21.6995 19.0114L20 17.7217L18.3005 19.0114L18.9637 17.0145L17.2021 15.7457H19.3783L19.9793 13.7281L20.5803 15.7457H22.7772Z" fill="#F9F9F9"/>
<path d="M5.53368 24.7313C5.63731 24.7313 5.74094 24.6897 5.80311 24.6065C5.82384 24.5857 5.90674 24.5441 6.01037 24.6481C7.33679 26.0209 9.4715 25.4593 10.6529 24.5441C10.6529 24.5441 11.3161 23.8785 12.0415 23.4625C12.3316 23.5873 12.6218 23.6705 12.9326 23.7953C12.9119 24.2321 12.9948 24.8353 13.4715 25.5425C13.4715 25.5425 13.1399 26.1665 12.5803 25.8129C12.5803 25.8129 12.1658 25.4801 12.5181 25.1057C12.5181 25.1057 12.7668 24.8977 12.8497 25.1473C12.7254 25.1473 12.6218 25.2513 12.6218 25.3761C12.6218 25.5009 12.7254 25.6049 12.8497 25.6049C12.9741 25.6049 13.0777 25.5009 13.0777 25.3969C13.0777 25.3137 13.0984 25.0641 12.8912 24.8977C12.8912 24.8977 12.7047 24.7105 12.3731 24.7521C11.8756 24.8353 11.5855 25.8753 12.5803 26.3121C12.5803 26.3121 13.3472 26.6657 13.7617 26.0833C13.7617 26.0833 13.7617 26.0001 13.9067 26.1457C14.715 26.9361 16.5596 26.7073 17.285 26.1665C17.285 26.1665 17.4715 26.0417 17.6788 25.9585C17.6995 26.2705 17.9275 26.5201 18.2591 26.5201C18.5907 26.5201 18.8394 26.2705 18.8394 25.9377C18.8394 25.6465 18.6321 25.4177 18.3627 25.3761C18.342 25.3761 17.9896 25.2721 17.4508 25.5841C17.4508 25.5841 16.8912 25.9377 16.9119 25.8753C17.0984 25.5841 17.2228 25.1681 17.3057 24.7521C18.0933 24.8353 18.9223 24.8977 19.772 24.9185C19.7513 25.1681 19.7306 25.4801 19.6269 25.7089C19.6269 25.7089 19.3368 25.8337 19.3161 26.0417C19.3161 26.0417 19.2746 26.1873 19.544 26.4161C19.544 26.4161 19.7306 26.6241 19.7927 26.7905C19.7927 26.7905 19.8135 27.0193 20.1243 27.0193C20.1451 27.0193 20.1658 27.0193 20.1865 27.0193C20.2073 27.0193 20.228 27.0193 20.2487 27.0193C20.5596 27.0193 20.5803 26.7905 20.5803 26.7905C20.6425 26.6241 20.829 26.4161 20.829 26.4161C21.0984 26.2081 21.057 26.0417 21.057 26.0417C21.057 25.8337 20.7461 25.7089 20.7461 25.7089C20.6425 25.4801 20.6218 25.1681 20.601 24.9185C21.4508 24.8977 22.2798 24.8353 23.0674 24.7521C23.1503 25.1889 23.2539 25.5841 23.4611 25.8753C23.5026 25.9377 22.943 25.5841 22.943 25.5841C22.4041 25.2513 22.0518 25.3553 22.0311 25.3761C21.7617 25.4177 21.5544 25.6465 21.5544 25.9377C21.5544 26.2497 21.8031 26.5201 22.1347 26.5201C22.4663 26.5201 22.6943 26.2705 22.6943 25.9585C22.9016 26.0625 23.0881 26.1665 23.0881 26.1665C23.8135 26.7073 25.6373 26.9361 26.4663 26.1457C26.6114 26.0001 26.6114 26.0833 26.6114 26.0833C27.0052 26.6657 27.7927 26.3121 27.7927 26.3121C28.7876 25.8753 28.4974 24.8353 28 24.7521C27.6684 24.6897 27.4819 24.8977 27.4819 24.8977C27.2746 25.0641 27.2746 25.3137 27.2953 25.3969C27.2953 25.5217 27.399 25.6049 27.5233 25.6049C27.6477 25.6049 27.7513 25.5009 27.7513 25.3761C27.7513 25.2513 27.6477 25.1473 27.5233 25.1473C27.6269 24.8977 27.8549 25.1057 27.8549 25.1057C28.2072 25.5009 27.7927 25.8129 27.7927 25.8129C27.2332 26.1457 26.8808 25.5425 26.8808 25.5425C27.3575 24.8353 27.4404 24.2113 27.4197 23.7953C27.7098 23.6913 28.0207 23.5873 28.3109 23.4625C29.0363 23.8785 29.6995 24.5441 29.6995 24.5441C30.8808 25.4593 33.0363 26.0417 34.342 24.6481C34.4456 24.5441 34.5285 24.5857 34.5492 24.6065C34.6114 24.6897 34.715 24.7313 34.8186 24.7313C34.943 24.7313 35.0259 24.6689 35.1088 24.5857C35.1503 24.5233 35.171 24.4401 35.171 24.3985V24.3777C35.171 24.2321 35.1088 24.1489 35.1088 24.1489C34.8808 23.8785 34.3005 24.0033 34.3005 24.0033C34.6114 23.0673 33.7409 22.8177 33.7409 22.8177C33.43 22.7345 33.2228 22.7969 33.0984 22.8801C33.0984 22.8801 33.0984 22.8801 33.0777 22.8801C33.057 22.9009 33.0363 22.9217 33.0155 22.9217C32.9326 23.0049 32.8912 23.1089 32.8912 23.2337C32.8912 23.4833 33.0984 23.6913 33.3471 23.6913C33.4508 23.6913 33.5337 23.6497 33.5958 23.6081C33.6788 23.5457 33.7617 23.4417 33.7824 23.3377C33.9067 23.4209 33.9482 23.5457 33.9482 23.5457C34.1969 24.3361 33.3057 24.6273 33.3057 24.6273C31.3161 25.2305 30.114 24.1905 30.114 24.1905L30.4663 24.0033C30.5907 23.9409 30.6943 23.9409 30.7772 23.9409C30.7772 23.9617 30.7772 23.9825 30.7772 24.0033C30.7772 24.2113 30.9637 24.3985 31.171 24.3985C31.3782 24.3985 31.5648 24.2321 31.5648 24.0033C31.5648 23.8369 31.4819 23.7537 31.4819 23.7537C31.2539 23.4001 30.4456 23.6289 30.4456 23.6289C30.715 22.9633 30.4663 22.5057 30.4663 22.5057C30.0933 21.7361 29.2228 21.9857 29.2228 21.9857C28.9119 22.0689 28.8497 22.3601 28.8497 22.3601C28.7254 22.9633 29.2228 23.0257 29.2228 23.0257C29.5751 23.0465 29.5958 22.7553 29.5958 22.7553C29.6373 22.4849 29.2435 22.4641 29.2435 22.4641C29.5751 21.8817 30.6321 22.8385 29.9482 23.6913C29.8653 23.7745 29.8031 23.7121 29.8031 23.7121C28.5596 23.1089 27.9585 22.6929 27.6477 22.4641C27.6269 22.1313 27.3161 21.9649 27.3782 21.8609C27.4197 21.8401 27.6062 21.9233 27.7098 21.7777C27.7513 21.7153 27.8342 21.1953 27.8964 20.8208C28.9948 21.3201 29.9275 21.1745 30.114 21.1121C30.2176 21.0704 30.2798 21.008 30.2798 20.8624C30.3005 20.4464 29.2228 17.992 29.1813 17.1184C29.6995 17.368 30.0104 16.5776 30.0933 16.3488C30.7772 16.6608 31.0052 23.0465 31.544 23.2545C31.8135 23.3585 31.9171 22.9217 31.9378 22.8385C32.7876 19.9888 32.8083 17.2224 32.7668 16.3072C32.6839 14.8512 32.5596 13.5616 32.2072 12.3552C32 11.6271 31.5855 10.1087 30.6114 9.90073C30.1554 9.79672 29.8031 10.2335 29.8238 10.6079C29.8238 10.9407 30.0518 11.1071 29.9482 11.4191C29.8238 11.6271 29.6995 11.8559 29.658 12.1056C29.6166 12.3552 29.8031 12.4384 29.7409 12.688C29.43 12.6464 29.285 12.9168 28.8083 12.792C29.1192 12.6464 29.1192 11.7519 28.7461 11.5855C28.6839 11.5647 28.6218 11.5439 28.6218 11.5023C28.6218 11.5023 28.7461 11.3775 28.8083 11.2319C29.0363 10.7743 29.0363 10.3791 28.8497 10.0671C29.0155 10.0879 29.1813 9.79673 29.2021 9.54712V9.52632C29.2021 9.46392 29.2021 9.25592 29.285 9.06872C29.3057 9.00632 29.285 8.92312 29.2228 8.90231C29.1606 8.88151 29.0984 8.90231 29.057 8.96472C28.9534 9.17272 28.7254 9.04792 28.829 8.86071C28.8497 8.79831 28.829 8.73591 28.7668 8.69431C28.7047 8.67351 28.6425 8.69431 28.601 8.75671C28.5181 8.94392 28.2901 8.83991 28.3731 8.65271C28.3938 8.59031 28.3731 8.52791 28.3316 8.48631C28.2901 8.46551 28.2072 8.48631 28.1658 8.54871C28.0829 8.75671 27.8342 8.63191 27.9378 8.44471C27.9585 8.38231 27.9378 8.29911 27.8756 8.27831C27.8135 8.25751 27.7513 8.27831 27.7098 8.34071C27.6062 8.54871 27.544 8.63191 27.4404 8.71511C27.2332 8.75671 27.2746 9.00632 27.3161 9.17272C26.9223 9.08952 26.6114 9.38072 26.6114 9.67192H26.5699C26.2383 9.67192 25.9275 9.85913 25.9482 10.1503C25.9689 10.3167 26.1554 10.5455 26.2383 10.5455C26.2798 10.5455 26.2176 10.3583 26.4041 10.3583C26.5699 10.3583 26.7979 10.4831 26.8186 10.6287C26.8601 10.7951 26.715 11.2111 27.2539 11.2735C27.2539 11.2735 27.2539 11.3567 27.2332 11.4399C27.0466 11.4191 26.9845 11.4191 26.7979 11.4399C26.4456 11.5023 25.9896 11.6895 25.8653 12.0223C25.8446 12.0848 25.8238 12.1888 25.8446 12.272C25.8446 12.3344 25.9067 12.4384 25.9067 12.5216C25.9067 12.5632 25.8238 12.6464 25.8031 12.6672C25.658 12.8128 25.3886 12.9584 25.1606 12.9792C24.9119 13 24.6425 12.8336 24.5596 12.688C24.2073 12.2304 24.6632 11.4191 24.6632 11.1279C24.6425 10.3375 23.6477 10.8159 23.2539 11.0239C22.7772 11.2735 22.4041 11.6687 22.0933 12.064C21.9275 12.272 21.7202 12.5424 21.6166 12.792C21.5959 12.8336 21.5544 12.8336 21.513 12.8336C21.7202 12.9168 22.0725 13.0624 22.3627 13.0624C22.3627 13.0624 22.9223 13.1456 23.3161 12.8128C23.3161 12.8128 23.3782 12.7712 23.4611 12.7712C23.5233 12.7712 23.5648 12.792 23.6062 12.8336C23.6062 12.8336 23.6684 12.8752 23.7306 12.9376C23.7513 12.9584 23.772 12.9584 23.7927 12.9792C23.772 12.9584 23.7513 12.9376 23.7306 12.9376C23.7513 12.9584 23.772 12.9584 23.7927 12.9792C23.8135 13 23.8342 13.0208 23.8549 13.0416C23.8756 13.0624 23.8964 13.0832 23.9171 13.104C23.9793 13.1456 24.0622 13.208 24.1243 13.2704C24.1451 13.2704 24.1451 13.2912 24.1658 13.2912C24.2487 13.3536 24.3316 13.416 24.3938 13.4576C24.4767 13.52 24.5596 13.5824 24.601 13.6032C24.601 13.6032 24.6218 13.624 24.6425 13.6656C24.6425 13.6864 24.6218 13.728 24.601 13.7696C24.601 13.7696 24.5596 13.8112 24.4974 13.8944C24.3731 14.0608 24.1451 14.3936 23.9585 14.7888C24.1451 15.1216 24.456 15.496 24.9119 15.5168C25.2642 15.5168 25.4093 15.3504 25.4715 15.1008L25.4922 15.1216C25.5337 15.08 25.7409 16.1616 25.9896 16.4528C25.7409 16.5776 25.3679 16.952 25.5751 18.0128C25.3679 17.8464 24.9948 17.576 24.829 17.3888C24.7254 17.16 24.5181 16.64 23.9171 16.5984C24 16.8688 24.1243 17.16 24.3316 17.4928C24.3316 17.5136 24.7047 18.1792 24.5803 18.9488C24.829 18.6992 24.7876 17.9712 24.7876 17.9712C24.7876 17.9504 24.829 17.9504 24.8497 17.9504C24.8912 17.9504 25.1606 18.4288 25.5959 18.5328C26.1554 19.5104 26.7979 20.1136 27.4197 20.5088C27.399 20.7376 27.4404 21.2993 27.2953 21.2993C26.8186 21.4033 26.3627 21.0704 25.9275 21.1121C25.886 21.0913 25.8446 21.0705 25.8446 21.0705C24 20.176 21.5751 22.0897 21.1813 22.4641C20.9741 22.6513 20.7254 22.4017 20.7254 22.4017C20.5803 22.2145 20.3938 22.1313 20.2073 22.1521C20.0207 22.1313 19.8342 22.2145 19.6891 22.4017C19.6891 22.4017 19.4404 22.6721 19.2332 22.4641C18.8601 22.1105 16.6632 20.4048 14.8601 20.9872C14.8601 20.8832 14.6114 20.8416 14.5492 20.8208C14.4041 20.7792 14.2798 20.6752 14.1969 20.6336C14.0104 20.5296 13.6788 20.592 13.4715 20.5712C13.3886 20.5504 13.2642 20.5088 13.1813 20.4672C12.8912 20.28 12.5596 20.072 12.3938 19.8016C12.3731 19.76 12.2902 19.656 12.2694 19.6352C12.1865 19.5312 12.1451 19.448 12.0622 19.2608C11.9586 18.9072 12.1244 18.5328 12.1658 18.1584C12.2073 17.888 12.1865 17.8672 12.228 17.5968C13.3679 17.2016 13.8238 16.3488 14.0933 15.8912C14.114 15.8496 14.1969 15.704 14.1969 15.704C14.2383 15.704 14.3005 15.7248 14.3627 15.7248C14.8187 15.7248 15.1295 15.4752 15.6269 15.5376C15.6269 15.5584 15.6891 15.7664 16.0207 15.912C16.0415 16.2448 16.0622 16.5152 16.1865 16.7648C16.2073 16.8064 16.2487 16.848 16.2694 16.8896C16.4767 16.3696 16.5389 15.9536 16.5389 15.704C16.5181 15.6832 16.5181 15.6624 16.4974 15.6C16.3938 15.0384 16.1244 14.8928 15.8964 14.7472C15.772 14.6848 15.6477 14.664 15.5233 14.5808C15.3575 14.456 15.1503 14.3312 15.0466 14.1024C15.0466 14.1024 15.1088 14.04 15.171 13.9776C15.4819 13.6448 15.6477 13.1456 15.772 12.6048C16.0207 12.272 16.6839 12.3968 16.9534 12.4384C17.0155 12.4384 17.1399 12.48 17.1813 12.5216C17.2435 12.5632 17.2642 12.688 17.3679 12.7296C17.4715 12.7712 17.5959 12.7296 17.7202 12.7296C17.7617 12.792 17.8031 12.8544 17.8238 12.9376C17.8238 12.9376 17.8653 13 17.9275 13.0624C18.2383 13.0624 18.6736 12.896 18.8394 12.792C18.8187 12.7712 18.7979 12.7712 18.7979 12.7504C18.6528 12.5632 18.4456 12.376 18.2383 12.3344C17.9896 12.2928 17.9275 12.064 17.6995 12.0223C17.6373 12.0015 17.4301 11.9807 17.3471 12.0015C16.8083 12.064 16.4352 11.8767 15.9378 11.8351C15.4611 11.7935 15.4404 12.1264 15.2746 12.3968C15.2124 12.5008 15.1295 12.6048 15.0466 12.688C14.9223 12.8128 14.7565 12.8128 14.6114 12.9376L14.5492 12.7296C14.5078 12.5632 14.4456 12.3968 14.342 12.2304C14.0933 11.8143 13.7824 11.5023 13.2228 11.3775C13.1192 11.3359 13.0984 11.3359 13.0155 11.2735C12.9119 11.2111 12.9948 11.1071 13.0155 11.1071C13.1813 11.0031 13.4508 11.0447 13.6373 10.9615C14.0933 10.7535 13.9275 10.3583 13.7617 10.3375C13.5337 10.2959 13.1192 10.1919 13.0363 10.1295C12.9326 10.0671 12.7254 9.71352 12.5596 9.63032C12.3523 9.56792 12.4352 9.25592 12.2487 9.17272C12.1658 9.15192 12.0415 9.19352 11.9171 9.25592C11.9171 9.19352 11.8549 8.81911 11.6477 8.69431C11.5026 8.61111 11.4404 8.73591 11.4404 8.83991C11.4404 8.92312 11.6684 9.02712 11.7098 9.38072C11.6684 9.40152 11.6477 9.42232 11.6062 9.44312C11.5855 9.29752 11.5026 9.06872 11.3575 8.98552C11.2124 8.90232 11.1503 9.02712 11.1503 9.13112C11.1503 9.21432 11.3575 9.29752 11.399 9.60952C11.3575 9.65112 11.3161 9.69272 11.2746 9.71352C10.9637 9.63032 10.8808 9.42232 10.8187 9.40152C10.7358 9.38072 10.5907 9.42232 10.6529 9.58872C10.7358 9.75512 10.9637 9.83833 11.1088 9.87993C11.0674 9.92153 11.0466 9.94233 11.0259 9.98393C10.6736 9.92153 10.5907 9.67192 10.5078 9.67192C10.4249 9.65112 10.2798 9.69272 10.342 9.85913C10.4456 10.0879 10.8394 10.1711 10.8808 10.1711C10.8187 10.2751 10.7772 10.3583 10.7979 10.4207C10.5285 10.3791 10.0311 10.5455 10.114 10.8575C10.2176 10.9199 10.5285 10.6495 10.8394 10.8159C11.0466 11.1279 11.3575 11.1279 11.4197 11.1903C11.5233 11.2735 11.544 11.4399 11.6062 11.5855C11.6891 11.8559 11.8756 12.064 12.0415 12.3136C12.2073 12.5632 12.3938 12.8544 12.5596 13.0832C12.5803 13.1456 12.601 13.208 12.5803 13.312C12.3731 13.6448 11.772 14.0192 11.5233 14.248C11.2746 14.4768 8.89119 16.3072 8.60104 17.0976C8.53886 17.2848 8.49741 17.4928 8.49741 17.7424C8.35233 17.8256 8.04145 17.9504 7.93783 17.8048C7.7513 17.5552 8.10363 17.3472 8.04145 17.0976C8 16.9936 7.87565 16.9312 7.77202 16.9936C7.17099 17.4304 7.48187 18.1792 7.85492 18.3456C8.26943 18.512 8.33161 18.0752 8.64249 18.2624C8.72539 18.304 9.4715 18.9904 9.34715 19.5104C9.34715 19.5312 9.3057 19.6144 9.3057 19.6352C9.1399 19.8432 8.87047 20.0096 8.68394 20.1968C8.29016 20.4464 9.057 22.0273 8.99482 22.8177C8.95337 23.1297 9.24353 23.0881 9.43005 23.5665C9.24353 23.5665 9.057 23.6081 8.97409 23.7537C8.97409 23.7537 8.89119 23.8369 8.89119 24.0033C8.89119 24.2113 9.057 24.3985 9.28498 24.3985C9.51295 24.3985 9.67876 24.2321 9.67876 24.0033C9.67876 23.9825 9.67876 23.9617 9.67876 23.9409C9.76166 23.9409 9.88601 23.9617 9.98964 24.0033L10.342 24.1905C10.342 24.1905 9.11917 25.2097 7.15026 24.6273C7.15026 24.6273 6.25907 24.3361 6.50777 23.5457C6.50777 23.5457 6.54923 23.4001 6.67358 23.3377C6.6943 23.4417 6.75648 23.5457 6.86011 23.6081C6.94301 23.6497 7.02591 23.6913 7.10881 23.6913C7.35751 23.6913 7.56477 23.4833 7.56477 23.2337C7.56477 23.1089 7.52332 23.0049 7.44042 22.9217C7.41969 22.9009 7.39897 22.8801 7.37824 22.8801C7.23316 22.7969 7.04663 22.7345 6.73575 22.8177C6.73575 22.8177 5.86529 23.0673 6.17617 24.0033C6.17617 24.0033 5.59586 23.8785 5.36788 24.1489C5.36788 24.1489 5.28498 24.2321 5.3057 24.3777V24.3985C5.3057 24.4609 5.32643 24.5233 5.36788 24.5857C5.32643 24.6689 5.43005 24.7313 5.53368 24.7313ZM23.9171 13.1456C23.9793 13.208 24.0414 13.2496 24.1243 13.312C24.0414 13.2496 23.9793 13.1872 23.9171 13.1456ZM23.4819 23.5665C23.6062 22.7761 24.228 22.7969 24.228 22.7969C24.6839 22.7969 25.0363 22.9841 25.3057 23.2545C24.7668 23.3585 24.1658 23.4625 23.4819 23.5665ZM24.6425 26.1041C24.228 26.0833 23.9171 25.9585 23.9171 25.9585C23.8549 25.9585 23.8135 25.8961 23.772 25.8337C23.6477 25.6049 23.5648 25.1265 23.5233 24.7105C24.3316 24.6065 25.1399 24.4609 25.886 24.2737C25.9067 24.2737 25.9275 24.2737 25.9275 24.2529C26.1762 24.8977 26.2591 25.5217 26.2591 25.5217C25.7617 26.0417 25.1192 26.1249 24.6425 26.1041ZM27.0052 23.9409C26.9845 24.2737 26.9223 24.5649 26.8394 24.7937C26.7565 25.0225 26.6943 25.1473 26.6943 25.1473C26.6528 25.1057 26.6321 25.0017 26.5907 24.8977C26.5699 24.7937 26.5492 24.7105 26.5492 24.7105C26.5492 24.6689 26.5285 24.6481 26.5078 24.6065C26.487 24.5441 26.4663 24.4817 26.4456 24.4193C26.4041 24.3361 26.3834 24.2529 26.342 24.1697C26.3834 24.1489 26.4249 24.1489 26.4663 24.1281C26.6321 24.0657 26.8186 24.0033 27.0052 23.9409ZM23.2332 21.8609C23.772 21.6529 24.228 21.5905 24.6425 21.6113C25.8653 21.6737 26.5285 22.4849 26.5285 22.4849C26.6114 22.6097 26.6736 22.7137 26.7357 22.8385C26.4456 22.9217 26.0725 23.0257 25.6373 23.1297C24.8705 22.4017 23.9585 22.3393 23.8964 22.3393C23.3161 22.2145 23.1917 21.8817 23.2332 21.8609ZM22.114 22.2977C22.1969 22.1729 22.3212 22.1105 22.4041 22.0897C22.4456 22.0689 22.487 22.0689 22.487 22.0689C22.6528 22.0689 22.7357 22.2561 22.7979 22.5473C22.8601 22.8385 22.9016 23.2129 22.943 23.6289C22.3005 23.7121 21.5751 23.7537 20.8083 23.7745C21.1192 23.1089 21.8446 22.6721 22.114 22.2977ZM17.8031 22.1105C17.8446 22.0897 17.8653 22.0689 17.9067 22.0689C17.9067 22.0689 18.0725 22.0689 18.2176 22.2145C18.2383 22.2353 18.2591 22.2561 18.2798 22.2769C18.5492 22.6513 19.2539 23.0881 19.5855 23.7537C18.8187 23.7329 18.0933 23.6913 17.4508 23.6081C17.513 22.9633 17.5751 22.4017 17.7202 22.1729C17.7409 22.1521 17.7617 22.1313 17.8031 22.1105ZM14.0518 24.1489C13.9896 24.2737 13.9482 24.4193 13.9067 24.5441C13.886 24.5857 13.8653 24.6273 13.8653 24.6897C13.8653 24.6897 13.7824 25.0641 13.7202 25.1473C13.7202 25.1473 13.4301 24.6273 13.4093 23.9409C13.5544 23.9825 13.6788 24.0241 13.8238 24.0865C13.8653 24.1073 13.9482 24.1281 14.0518 24.1489ZM16.456 25.9585C16.456 25.9585 15.0674 26.4993 14.114 25.5217C14.114 25.5217 14.1762 24.8977 14.4456 24.2529C14.4663 24.2529 14.4663 24.2529 14.487 24.2529C14.8601 24.3569 15.2539 24.4401 15.6269 24.5025C15.6269 24.5025 15.6269 24.5025 15.6477 24.5025C16.0415 24.5857 16.456 24.6481 16.8705 24.6897C16.8497 24.8977 16.8083 25.1265 16.7668 25.3345C16.6839 25.6673 16.601 25.9377 16.456 25.9585ZM16.8912 23.5665C16.7876 23.5457 16.6839 23.5249 16.5596 23.5249C16.0829 23.4417 15.6269 23.3585 15.2332 23.2753C15.1917 23.2545 15.1295 23.2545 15.0674 23.2337C15.1917 23.1297 15.3161 23.0257 15.4819 22.9633C15.6062 22.9009 15.7513 22.8593 15.8964 22.8177C15.9793 22.7969 16.0622 22.7969 16.1451 22.7969C16.1658 22.7969 16.7876 22.7761 16.8912 23.5665ZM15.4819 21.6529C15.9378 21.5905 16.4974 21.6321 17.1399 21.8609C17.1399 21.8609 17.1399 21.8609 17.1399 21.8817C17.1399 21.9441 17.0155 22.1521 16.6632 22.2977C16.601 22.3185 16.5389 22.3393 16.4767 22.3601C16.4352 22.3809 16.0415 22.4017 15.5648 22.6097C15.2953 22.7345 15.0052 22.9009 14.7358 23.1713C14.6114 23.1297 14.4663 23.1089 14.342 23.0673C14.0725 23.0049 13.8446 22.9217 13.6373 22.8593C13.6788 22.7969 13.6995 22.7345 13.7409 22.6929C13.7409 22.6929 13.7409 22.6721 13.7617 22.6721C13.8031 22.6305 13.8238 22.5681 13.8653 22.5057C13.8446 22.4849 14.4249 21.7985 15.4819 21.6529ZM10.7772 22.3185C10.7979 22.3185 10.8187 22.3185 10.8187 22.3185C10.8394 22.3185 10.8601 22.3185 10.8601 22.3185C10.9637 22.3393 11.0466 22.3809 11.1088 22.5057C11.1088 22.5057 10.715 22.5265 10.7565 22.7969C10.7565 22.7969 10.7565 23.0881 11.1295 23.0673C11.1295 23.0673 11.4404 23.0257 11.5026 22.7345C11.5233 22.6513 11.5233 22.5473 11.5026 22.4225C11.5026 22.4225 11.4611 22.2145 11.2332 22.0897C11.1917 22.0689 11.171 22.0481 11.1295 22.0481C11.1295 22.0481 10.5492 21.8817 10.1347 22.2561C10.0311 22.3393 9.94819 22.4433 9.88601 22.5889C9.88601 22.5889 9.86529 22.6305 9.84456 22.7137C9.82384 22.7969 9.80311 22.9009 9.80311 23.0673C9.72021 23.0049 9.63731 22.9425 9.53368 22.9217C9.51295 22.9217 9.49223 22.9009 9.4715 22.9009C9.3057 22.7345 9.01555 21.3201 9.20207 20.6128C10.5285 20.3424 10.943 19.2192 11.0052 18.9072C11.0466 18.928 11.0674 18.928 11.1088 18.9488C11.3161 19.0736 11.4404 19.3232 11.4611 19.4272C11.4611 19.5104 11.4611 19.5728 11.4611 19.656C11.4611 19.76 11.4611 19.864 11.5026 19.9472C11.6062 20.0928 11.7927 20.2176 11.9586 20.3424C12.0622 20.4048 12.1451 20.4672 12.2073 20.5088C12.2694 20.5504 12.5389 20.7584 12.8083 20.9664C13.057 21.1537 13.3057 21.3201 13.3679 21.3409C13.513 21.3617 13.5959 21.2577 13.7202 21.2785C13.7617 21.2993 13.7824 21.3201 13.8238 21.3409C13.8238 21.3409 13.886 21.4033 13.9689 21.4657L13.9896 21.4865C13.7409 21.6529 13.3886 21.9025 12.9534 22.2977C12.9534 22.2977 12.7876 22.5057 12.0415 22.9633C11.6891 23.1713 11.1917 23.4417 10.5285 23.7745C10.5285 23.7745 10.4663 23.8369 10.3834 23.7537C10.2591 23.6081 10.1969 23.4625 10.1762 23.3169C10.114 22.7969 10.4663 22.3601 10.7772 22.3185Z" fill="#F9F9F9"/>
</svg>
