<?xml version="1.0" encoding="utf-8"?>
<!-- Generator: Adobe Illustrator 28.0.0, SVG Export Plug-In . SVG Version: 6.00 Build 0)  -->
<svg version="1.1" id="Layer_1" xmlns="http://www.w3.org/2000/svg" xmlns:xlink="http://www.w3.org/1999/xlink" x="0px" y="0px"
	 viewBox="0 0 305 53.7" style="enable-background:new 0 0 305 53.7;" xml:space="preserve">
<style type="text/css">
	.st0{fill-rule:evenodd;clip-rule:evenodd;fill:#FF4731;}
	.st1{fill-rule:evenodd;clip-rule:evenodd;fill:#0F69C4;}
	.st2{fill:#FFFFFF;}
</style>
<g>
	<path class="st0" d="M114.2,9.9h191V0.1h-191C114.2,0.1,114.2,9.9,114.2,9.9z"/>
	<path class="st1" d="M0.2,9.9h114V0.1H0.2C0.2,0.1,0.2,9.9,0.2,9.9z"/>
</g>
<g>
	<path class="st2" d="M3.5,48.9v4.7H0.2V39.4h4.6c3,0,5.6,1.4,5.6,4.6c0,2.6-2,4.9-5.6,4.9H3.5z M4.8,42.2H3.5v4.1h1.2
		c1.3,0,2.1-1,2.1-2.2C6.8,43,6.1,42.2,4.8,42.2z"/>
	<path class="st2" d="M15.2,39.1v11.3c0,0.5,0.3,0.8,0.7,0.8l0.8,0.1v2.4c0,0-0.9,0.2-1.7,0.2c-2.1,0-3.1-1.1-3.1-2.9V39.1H15.2z"/>
	<path class="st2" d="M24.8,53.6l-0.4-1.2c-0.5,0.7-1.5,1.4-2.9,1.4c-2,0-3.5-1.3-3.5-3.4c0-2,1.5-3.1,4-3.1h1.9v-0.4
		c0-1.1-0.7-1.3-1.6-1.3c-1.2,0-2.2,0.3-3.1,0.7l-0.8-2.4c1.1-0.5,2.6-0.8,4.2-0.8c3.2,0,4.5,1.4,4.5,4.1v6.4H24.8z M23.9,49.2h-1.3
		c-0.9,0-1.3,0.4-1.3,1.1c0,0.8,0.4,1.2,1.2,1.2c0.5,0,1-0.2,1.4-0.4V49.2z"/>
	<path class="st2" d="M36.2,53c-0.7,0.4-1.7,0.7-2.9,0.7c-1.9,0-3.4-1.2-3.4-3.7v-4.5h-1.5v-2.4H30v-1.8l3.2-1v2.8h2.6v2.4h-2.6V50
		c0,0.6,0.3,1,0.9,1c0.5,0,1.1-0.1,1.6-0.4L36.2,53z"/>
	<path class="st2" d="M44.2,53.6l-0.4-1.2c-0.5,0.7-1.5,1.4-2.9,1.4c-2,0-3.5-1.3-3.5-3.4c0-2,1.5-3.1,4-3.1h1.9v-0.4
		c0-1.1-0.7-1.3-1.6-1.3c-1.2,0-2.2,0.3-3.1,0.7l-0.8-2.4c1.1-0.5,2.6-0.8,4.2-0.8c3.2,0,4.5,1.4,4.5,4.1v6.4H44.2z M43.3,49.2H42
		c-0.9,0-1.3,0.4-1.3,1.1c0,0.8,0.4,1.2,1.2,1.2c0.5,0,1-0.2,1.4-0.4V49.2z"/>
	<path class="st2" d="M55.1,41.5c-0.4-0.1-0.7-0.2-1.3-0.2c-0.7,0-1.3,0.4-1.3,1.2v0.7h2.2v2.4h-2.2v7.9h-3.3v-7.9h-1.4v-2.4h1.4
		v-0.8c0-2.4,1.5-3.7,4.3-3.7c0.7,0,1.3,0.1,1.7,0.2L55.1,41.5z"/>
	<path class="st2" d="M65.4,48.4c0,3.5-1.8,5.4-5,5.4c-3.2,0-5-1.8-5-5.4c0-3,1.8-5.3,5-5.3C63.6,43.1,65.4,45.4,65.4,48.4z
		 M62,48.4c0-2.4-0.7-2.9-1.6-2.9c-1,0-1.6,0.5-1.6,2.9c0,2.3,0.6,2.9,1.6,2.9S62,50.7,62,48.4z"/>
	<path class="st2" d="M70.6,53.6h-3.3V43.3h2.3l0.3,1.4H70c0.3-0.8,1.2-1.6,2.4-1.6c0.5,0,0.8,0,1.1,0.1l0,2.8
		c-0.4-0.1-0.8-0.2-1.3-0.2c-0.6,0-1.2,0.2-1.6,0.5V53.6z"/>
	<path class="st2" d="M84.6,47.3v6.3h-3.4v-6.1c0-1.3-0.6-1.9-1.6-1.9c-0.5,0-1,0.2-1.4,0.4v7.6H75V43.3h2.2l0.5,1.2
		c0.6-0.8,1.6-1.4,3-1.4c1.7,0,2.8,0.5,3.3,1.4c0.6-0.8,1.7-1.4,3-1.4c3.2,0,3.9,1.6,3.9,4.2v6.3h-3.4v-6.1c0-1.3-0.6-1.9-1.7-1.9
		c-0.5,0-1,0.2-1.4,0.4C84.6,46.3,84.6,46.8,84.6,47.3z"/>
	<path class="st2" d="M99.5,53.6l-0.4-1.2c-0.5,0.7-1.5,1.4-2.9,1.4c-2,0-3.5-1.3-3.5-3.4c0-2,1.5-3.1,4-3.1h1.9v-0.4
		c0-1.1-0.7-1.3-1.6-1.3c-1.2,0-2.2,0.3-3.1,0.7l-0.8-2.4c1.1-0.5,2.6-0.8,4.2-0.8c3.2,0,4.5,1.4,4.5,4.1v6.4H99.5z M98.6,49.2h-1.3
		c-0.9,0-1.3,0.4-1.3,1.1c0,0.8,0.4,1.2,1.2,1.2c0.5,0,1-0.2,1.4-0.4V49.2z"/>
	<path class="st2" d="M115.1,44.1c-0.2-0.6-0.3-1.1-0.3-2v-3.1h3.3v14.5h-2.8l-0.3-1.1c-0.3,0.6-1.2,1.3-2.6,1.3
		c-2.3,0-4.2-1.6-4.2-5.4c0-3.5,2.1-5.4,4.5-5.4C113.7,43.1,114.6,43.4,115.1,44.1z M114.8,45.9c-0.4-0.2-0.9-0.4-1.6-0.4
		c-1,0-1.8,0.6-1.8,2.9c0,2.4,0.8,3,1.7,3c0.6,0,1.2-0.3,1.6-0.7V45.9z"/>
	<path class="st2" d="M123.3,49.3c0,1.2,0.8,2,2.4,2c0.9,0,1.9-0.3,2.9-0.8l0.6,2.3c-0.9,0.4-2.3,1-4,1c-3.3,0-5.2-2-5.2-5.4
		c0-3.1,1.5-5.3,5-5.3c3.2,0,4.5,2.3,4.5,4.9v1.4H123.3z M124.9,45.5c-1.1,0-1.5,1-1.5,1.9h3C126.3,46.3,126,45.5,124.9,45.5z"/>
	<path class="st2" d="M139.4,48.9v4.7h-3.3V39.4h4.6c3,0,5.6,1.4,5.6,4.6c0,2.6-2,4.9-5.6,4.9H139.4z M140.6,42.2h-1.2v4.1h1.2
		c1.3,0,2.1-1,2.1-2.2C142.7,43,142,42.2,140.6,42.2z"/>
	<path class="st2" d="M156.9,48.4c0,3.5-1.8,5.4-5,5.4c-3.2,0-5-1.8-5-5.4c0-3,1.8-5.3,5-5.3C155.1,43.1,156.9,45.4,156.9,48.4z
		 M153.4,48.4c0-2.4-0.7-2.9-1.6-2.9c-1,0-1.6,0.5-1.6,2.9c0,2.3,0.6,2.9,1.6,2.9S153.4,50.7,153.4,48.4z"/>
	<path class="st2" d="M165.2,45.9c-0.7-0.3-1.6-0.5-2.4-0.5c-0.8,0-1.1,0.2-1.1,0.7c0,1.3,4.1,1,4.1,4.2c0,2-1.4,3.5-4.3,3.5
		c-1.2,0-2.4-0.3-3.1-0.7l0.6-2.3c0.5,0.3,1.4,0.7,2.4,0.7c0.8,0,1.2-0.3,1.2-0.8c0-1.5-4.1-1.1-4.1-4.6c0-1.6,1.2-3,4.2-3
		c1.1,0,2.2,0.2,2.8,0.4L165.2,45.9z"/>
	<path class="st2" d="M174.9,53c-0.7,0.4-1.7,0.7-2.9,0.7c-1.9,0-3.4-1.2-3.4-3.7v-4.5h-1.5v-2.4h1.5v-1.8l3.2-1v2.8h2.6v2.4h-2.6
		V50c0,0.6,0.3,1,0.9,1c0.5,0,1.1-0.1,1.6-0.4L174.9,53z"/>
	<path class="st2" d="M183.8,53.6l-0.5-1.3c-0.5,0.7-1.5,1.5-3.2,1.5c-2.7,0-3.8-1.5-3.8-4.3v-6.2h3.3v6.3c0,1.3,0.5,1.7,1.6,1.7
		c0.6,0,1.1-0.2,1.5-0.4v-7.6h3.4v10.3H183.8z"/>
	<path class="st2" d="M191.4,39.1v11.3c0,0.5,0.3,0.8,0.7,0.8l0.8,0.1v2.4c0,0-0.9,0.2-1.7,0.2c-2.1,0-3.1-1.1-3.1-2.9V39.1H191.4z"
		/>
	<path class="st2" d="M201,53.6l-0.4-1.2c-0.5,0.7-1.5,1.4-2.9,1.4c-2,0-3.5-1.3-3.5-3.4c0-2,1.5-3.1,4-3.1h1.9v-0.4
		c0-1.1-0.7-1.3-1.6-1.3c-1.2,0-2.2,0.3-3.1,0.7l-0.8-2.4c1.1-0.5,2.6-0.8,4.2-0.8c3.2,0,4.5,1.4,4.5,4.1v6.4H201z M200.1,49.2h-1.3
		c-0.9,0-1.3,0.4-1.3,1.1c0,0.8,0.4,1.2,1.2,1.2c0.5,0,1-0.2,1.4-0.4V49.2z"/>
	<path class="st2" d="M213.1,46.1c-0.7-0.4-1.6-0.6-2.5-0.6c-1.2,0-2,0.7-2,2.9c0,2.1,0.7,2.9,2,2.9c1,0,2-0.4,2.7-0.7l0.6,2.4
		c-0.5,0.3-2,0.9-3.6,0.9c-3.3,0-5.1-1.8-5.1-5.4c0-3.3,1.8-5.3,5.1-5.3c1.4,0,2.6,0.3,3.6,0.8L213.1,46.1z"/>
	<path class="st2" d="M216.5,53.6v-7.9l-1.2-0.3v-2.1h4.5v10.3H216.5z M216.4,39h3.3v2.9h-3.3V39z"/>
	<path class="st2" d="M231.8,48.4c0,3.5-1.8,5.4-5,5.4c-3.2,0-5-1.8-5-5.4c0-3,1.8-5.3,5-5.3C230,43.1,231.8,45.4,231.8,48.4z
		 M224,41.7l-0.3-1.9l5.6-1.4l0.4,2.4L224,41.7z M228.3,48.4c0-2.4-0.7-2.9-1.6-2.9c-1,0-1.6,0.5-1.6,2.9c0,2.3,0.6,2.9,1.6,2.9
		S228.3,50.7,228.3,48.4z"/>
	<path class="st2" d="M240,53.6v-6.1c0-1.3-0.6-1.9-1.6-1.9c-0.5,0-1,0.2-1.4,0.4v7.6h-3.3V43.3h2.3l0.5,1.2
		c0.6-0.8,1.7-1.4,3.3-1.4c2.7,0,3.7,1.6,3.7,4.2v6.3H240z"/>
	<path class="st2" d="M245.2,50.3h3.4v3.3h-3.4V50.3z"/>
	<path class="st2" d="M257.1,53.6l-0.3-1.3c-0.6,0.8-1.7,1.5-3.2,1.5c-2.1,0-3.3-1.4-3.3-3.1c0-1.8,1.3-2.9,3.6-2.9h2.7v-0.8
		c0-1.8-0.8-2.5-2.3-2.5c-1.3,0-2.4,0.3-3.1,0.7l-0.4-1.2c0.8-0.4,2-0.8,3.7-0.8c2.4,0,3.7,1.3,3.7,3.7v6.8H257.1z M256.7,48.8h-2.4
		c-1.7,0-2.3,0.8-2.3,1.8c0,1.2,0.7,2.1,2.2,2.1c1,0,2-0.6,2.6-1.3V48.8z"/>
	<path class="st2" d="M267.4,53.6v-6.2c0-2-0.6-3-2.4-3c-1.1,0-1.9,0.6-2.5,1.2v8.1h-1.6V43.3h1.1l0.3,1.2c0.6-0.6,1.7-1.4,3.2-1.4
		c2.4,0,3.5,1.4,3.5,4v6.5H267.4z"/>
	<path class="st2" d="M272.4,53.6v-9l-1.1-0.2v-1h2.7v10.3H272.4z M272.3,39.2h1.7v1.7h-1.7V39.2z"/>
	<path class="st2" d="M283.6,52.3c-0.6,0.8-1.7,1.4-3,1.4c-2.4,0-4.1-1.8-4.1-5.4c0-3.1,1.6-5.3,4.3-5.3c1.3,0,2.2,0.4,2.8,0.9
		c-0.1-0.5-0.1-1.1-0.1-1.7v-3.2h1.6v14.5h-1.2L283.6,52.3z M283.4,45c-0.5-0.3-1.3-0.7-2.5-0.7c-1.9,0-2.9,1.5-2.9,4.1
		c0,2.5,0.8,4.2,2.8,4.2c0.9,0,1.8-0.4,2.6-1.3V45z"/>
	<path class="st2" d="M287.5,51.2h1.6v2.4h-1.6V51.2z"/>
	<path class="st2" d="M299.1,52.9c-0.6,0.4-1.9,0.9-3.4,0.9c-2.6,0-4.5-1.5-4.5-5.4c0-3.5,1.9-5.4,4.5-5.4c1.2,0,2.4,0.3,3.4,0.8
		l-0.5,1.1c-0.8-0.5-1.8-0.7-2.8-0.7c-1.8,0-3,1.5-3,4.1c0,2.9,1.1,4.1,3,4.1c1.2,0,2.2-0.4,3-0.9L299.1,52.9z"/>
	<path class="st2" d="M301.3,50.7V39.1h1.6v12.2c0,0.9,0.4,1.2,1.5,1.2h0.3v1.1c0,0-0.5,0.1-1,0.1C301.8,53.8,301.3,52.7,301.3,50.7
		z"/>
</g>
</svg>
