<?xml version="1.0" encoding="utf-8"?>
<!-- Generator: Adobe Illustrator 28.0.0, SVG Export Plug-In . SVG Version: 6.00 Build 0)  -->
<svg version="1.1" id="Layer_1" xmlns="http://www.w3.org/2000/svg" xmlns:xlink="http://www.w3.org/1999/xlink" x="0px" y="0px"
	 viewBox="0 0 190.9 31.5" style="enable-background:new 0 0 190.9 31.5;" xml:space="preserve">
<style type="text/css">
	.st0{fill:#ffffff;}
</style>
<g>
	<path class="st0" d="M171.9,20.6h-0.1c-0.5,0-0.9,0.3-1.1,0.7c0,0,0,0.1-0.1,0.2v0c-0.1,0.2-0.3,0.5-0.4,0.6
		c-0.9,1.3-2.4,2.1-4,2.1c-2.7,0-4.9-2.3-4.9-5c0-2.8,2.3-5,4.9-5c1.7,0,3.3,0.9,4.2,2.3c0.1,0.1,0.1,0.2,0.2,0.2c0,0,0-0.1,0-0.1
		c0.2,0.5,0.6,0.8,1.2,0.8h0.1c0.7,0,1.2-0.5,1.2-1.2v0c0-0.3-0.1-0.5-0.3-0.8c-1.3-2-3.6-3.5-6.4-3.5c-4.4,0-7.5,3.3-7.5,7.2
		c0,4,3,7.2,7.5,7.2c3.1,0,5.5-1.6,6.7-3.9c0.1-0.2,0.2-0.4,0.2-0.6v-0.1C173.1,21.2,172.6,20.6,171.9,20.6z M190.9,19.2L190.9,19.2
		c0-3.9-3.1-7.2-7.4-7.2s-7.4,3.3-7.4,7.1c0,3.9,2.9,7.1,7.4,7.1c2,0,3.8-0.7,5-1.8v0.8c0,0.6,0.5,1.2,1.2,1.2
		c0.6,0,1.2-0.5,1.2-1.2L190.9,19.2L190.9,19.2z M183.5,24.1c-2.6,0-4.9-2.3-4.9-4.9c0-2.8,2.2-4.9,4.9-4.9c2.7,0,4.9,2.2,4.9,4.9
		c0,0,0,0,0,0C188.4,21.8,186.2,24.1,183.5,24.1z M155.3,13.2c0-0.6-0.5-1.2-1.2-1.2s-1.2,0.5-1.2,1.2v12.1c0,0.6,0.5,1.2,1.2,1.2
		s1.2-0.5,1.2-1.2V13.2z M149.1,18.5v-0.2c-0.1-3.4-2.7-6.3-6.7-6.3c-4,0-6.6,2.8-6.7,6.3v7c0,0.6,0.5,1.2,1.2,1.2s1.2-0.5,1.2-1.2
		v-6.8c0-2.4,2-4.5,4.4-4.5c2.4,0,4.4,2.1,4.4,4.5v6.8c0,0.6,0.5,1.2,1.2,1.2s1.2-0.5,1.2-1.2v-6.6L149.1,18.5L149.1,18.5z
		 M81.5,19.3c0-3.9-3.1-7.2-7.5-7.2c-4.4,0-7.5,3.3-7.5,7.2c0,4,3,7.2,7.5,7.2c2,0,3.8-0.7,5.1-1.8v0.8c0,0.6,0.6,1.2,1.2,1.2
		c0.6,0,1.2-0.5,1.2-1.2L81.5,19.3L81.5,19.3z M74,24.2c-2.7,0-4.9-2.3-4.9-5c0-2.8,2.3-5,4.9-5c2.7,0,4.9,2.1,4.9,5
		C79,21.9,76.7,24.2,74,24.2z M63.6,24.4h-0.7c-0.8,0-1.5-0.5-1.5-2.1V8.2c0-0.6-0.6-1.1-1.2-1.1c-0.6,0-1.2,0.5-1.2,1.1v14.3
		c0,2.9,1.5,4.1,3.7,4.1h1c0.6,0,1.1-0.5,1.1-1.1C64.7,24.9,64.2,24.4,63.6,24.4z M97.1,12c-0.6-0.3-1.3,0-1.5,0.5L90.5,23
		l-5.2-10.5c-0.3-0.6-1-0.8-1.5-0.5c-0.6,0.3-0.8,0.9-0.5,1.5l6.2,12.5c0.2,0.4,0.6,0.6,1,0.6c0.4,0,0.8-0.2,1-0.6l6.2-12.5
		C97.9,13,97.7,12.3,97.1,12z M107.3,11.9c-4.3,0-7.5,3.1-7.5,7.3c0,4.3,3.3,7.3,8,7.3c2.1,0,3.9-0.6,5.3-1.7
		c0.2-0.1,0.5-0.5,0.5-0.9c0-0.7-0.7-1.3-1.3-1.3c-0.4,0-0.5,0.1-0.7,0.2c-1.1,0.7-2.2,1.4-3.7,1.4c-2.5,0-4.6-1.2-5.1-3.4l-0.2-0.7
		h10.5c0.9,0,1.5-0.6,1.5-1.4C114.6,16,112.6,11.9,107.3,11.9z M102.5,17.8c0.5-2.3,2.4-3.7,4.6-3.7c2.2,0,4.3,1.4,4.6,3.7H102.5z
		 M124.5,7.8c-0.4,0-0.8-0.2-1-0.6c-0.3-0.5-0.1-1.2,0.5-1.5l6.6-3.4c0.5-0.3,1.3-0.1,1.5,0.5c0.3,0.5,0.1,1.2-0.5,1.5L125,7.7
		C124.8,7.8,124.6,7.8,124.5,7.8z M12.9,18.9c0.5,0.5,1.2,0.6,1.7,0.1c0.5-0.5,0.6-1.2,0.1-1.7c-0.5-0.5-1.2-0.6-1.7-0.1
		C12.5,17.6,12.5,18.4,12.9,18.9z"/>
	<path class="st0" d="M19,4.8c-0.6-0.2-1.2,0.1-1.5,0.6c-0.2,0.6,0.1,1.2,0.6,1.5c4.4,1.8,7.3,6,7.3,10.8c0,6.4-5.2,11.6-11.6,11.6
		C7.4,29.2,2.2,24,2.2,17.6C2.2,12.9,5,8.8,9.3,7c0.6-0.2,0.8-0.9,0.6-1.5C9.7,4.9,9,4.7,8.5,4.9C3.3,7,0,12,0,17.6
		c0,7.6,6.2,13.8,13.9,13.8s13.9-6.2,13.9-13.8C27.7,12,24.3,6.9,19,4.8z"/>
	<path class="st0" d="M6.8,18.1c0,3.9,3.2,7.1,7.1,7.1c0,0,0,0,0,0c3.9,0,7.1-3.2,7.1-7.1c0,0,0,0,0,0c0-3.5-2.6-6.5-6.1-7V2.3h3
		c0.6,0,1.1-0.5,1.1-1.1C19,0.5,18.6,0,17.9,0h-4.1c-0.6,0-1.1,0.5-1.1,1.1v9.9C9.3,11.7,6.8,14.6,6.8,18.1z M18.7,18.1
		c0,2.7-2.2,4.8-4.9,4.8c-2.7,0-4.8-2.2-4.9-4.8c0,0,0,0,0,0c0-2.7,2.2-4.8,4.8-4.8c0,0,0,0,0,0C16.6,13.2,18.7,15.4,18.7,18.1z
		 M46.1,27.1C40.5,27.1,36,22.6,36,17c0-5.6,4.5-10.1,10.1-10.1c3.5,0,6.9,1.9,8.7,5c0.3,0.6,0.2,1.2-0.4,1.6
		c-0.5,0.3-1.2,0.2-1.6-0.4c-1.4-2.3-4-3.9-6.8-3.9c-4.3,0-7.9,3.5-7.9,7.8c0,0,0,0,0,0c0,4.3,3.5,7.9,7.8,7.9c0,0,0,0,0,0
		c3.1,0,5.9-1.8,7.1-4.6c0.3-0.6,0.9-0.8,1.5-0.5c0.6,0.3,0.8,0.9,0.5,1.5C53.6,24.8,50,27.1,46.1,27.1L46.1,27.1z M131.5,8.1
		c-0.6,0-1.1,0.5-1.1,1.1v10.5c0,2.8-2.3,5.2-5.2,5.2c-2.8,0-5.2-2.3-5.2-5.2V9.2c0-0.6-0.5-1.1-1.1-1.1c-0.6,0-1.1,0.5-1.1,1.1
		v10.5c0,4.1,3.3,7.4,7.4,7.4c4.1,0,7.4-3.3,7.4-7.4c0,0,0,0,0,0V9.2C132.6,8.6,132.1,8.1,131.5,8.1L131.5,8.1z"/>
</g>
</svg>
