<svg width="305" height="17" viewBox="0 0 305 17" fill="none" xmlns="http://www.w3.org/2000/svg">
<g clip-path="url(#clip0_1_8)">
<path d="M4.838 11.317H3.578V16H0.26V1.825H4.838C7.82 1.825 10.403 3.274 10.403 6.382C10.403 9.028 8.387 11.317 4.838 11.317ZM6.875 6.529C6.875 5.395 6.14 4.618 4.796 4.618H3.578V8.755H4.796C6.14 8.755 6.875 7.747 6.875 6.529ZM11.906 1.51H15.203V12.808C15.203 13.312 15.455 13.585 15.896 13.606L16.736 13.669V16.021C16.736 16.021 15.812 16.21 14.993 16.21C12.893 16.21 11.906 15.097 11.906 13.333V1.51ZM27.122 16H24.854L24.434 14.824C23.951 15.517 22.943 16.21 21.515 16.21C19.478 16.21 17.987 14.908 17.987 12.829C17.987 10.855 19.457 9.742 21.998 9.742H23.909V9.364C23.909 8.272 23.174 8.02 22.355 8.02C21.179 8.02 20.171 8.293 19.289 8.692L18.47 6.34C19.604 5.857 21.095 5.5 22.67 5.5C25.841 5.5 27.122 6.886 27.122 9.595V16ZM23.909 13.564V11.653H22.586C21.704 11.653 21.242 12.073 21.242 12.745C21.242 13.543 21.683 13.984 22.481 13.984C22.943 13.984 23.468 13.816 23.909 13.564ZM35.7456 13.018L36.2286 15.475C35.5146 15.853 34.4856 16.21 33.3096 16.21C31.3776 16.21 29.9496 14.971 29.9496 12.514V8.062H28.4796V5.71H30.0126V3.946L33.2466 2.896V5.71H35.8716V8.062H33.2466V12.409C33.2466 13.018 33.5406 13.375 34.1916 13.375C34.6956 13.375 35.2836 13.249 35.7456 13.018ZM46.5223 16H44.2543L43.8343 14.824C43.3513 15.517 42.3433 16.21 40.9153 16.21C38.8783 16.21 37.3873 14.908 37.3873 12.829C37.3873 10.855 38.8573 9.742 41.3983 9.742H43.3093V9.364C43.3093 8.272 42.5743 8.02 41.7553 8.02C40.5793 8.02 39.5713 8.293 38.6893 8.692L37.8703 6.34C39.0043 5.857 40.4953 5.5 42.0703 5.5C45.2413 5.5 46.5223 6.886 46.5223 9.595V16ZM43.3093 13.564V11.653H41.9863C41.1043 11.653 40.6423 12.073 40.6423 12.745C40.6423 13.543 41.0833 13.984 41.8813 13.984C42.3433 13.984 42.8683 13.816 43.3093 13.564ZM55.314 1.342L55.083 3.946C54.726 3.841 54.348 3.778 53.802 3.778C53.067 3.778 52.542 4.198 52.542 5.017V5.71H54.768V8.062H52.542V16H49.224V8.062H47.775V5.71H49.224V4.87C49.224 2.434 50.694 1.153 53.571 1.153C54.306 1.153 54.894 1.258 55.314 1.342ZM60.3512 5.5C63.5852 5.5 65.3912 7.81 65.3912 10.834C65.3912 14.362 63.5852 16.21 60.3512 16.21C57.1172 16.21 55.3112 14.362 55.3112 10.834C55.3112 7.81 57.1172 5.5 60.3512 5.5ZM60.3512 13.774C61.3592 13.774 61.9682 13.144 61.9682 10.834C61.9682 8.44 61.3172 7.894 60.3512 7.894C59.3852 7.894 58.7342 8.44 58.7342 10.834C58.7342 13.144 59.3432 13.774 60.3512 13.774ZM70.5531 8.755V16H67.2771V5.71H69.5871L69.9021 7.138H70.0071C70.2591 6.319 71.1831 5.5 72.3591 5.5C72.8211 5.5 73.1781 5.542 73.4931 5.626L73.4511 8.44C73.0731 8.335 72.6111 8.272 72.1701 8.272C71.5611 8.272 70.9731 8.461 70.5531 8.755ZM84.5435 8.377C84.6065 8.776 84.6275 9.238 84.6275 9.7V16H81.2675V9.931C81.2675 8.587 80.7005 8.02 79.6715 8.02C79.1255 8.02 78.6845 8.188 78.2855 8.377V16H74.9675V5.71H77.1935L77.7185 6.865C78.3275 6.109 79.3145 5.5 80.7425 5.5C82.4855 5.5 83.4935 5.983 84.0395 6.865C84.6485 6.109 85.6985 5.5 87.0845 5.5C90.2555 5.5 90.9695 7.075 90.9695 9.7V16H87.6095V9.931C87.6095 8.587 86.9795 8.02 85.9505 8.02C85.4045 8.02 84.9425 8.188 84.5435 8.377ZM101.791 16H99.5229L99.1029 14.824C98.6199 15.517 97.6119 16.21 96.1839 16.21C94.1469 16.21 92.6559 14.908 92.6559 12.829C92.6559 10.855 94.1259 9.742 96.6669 9.742H98.5779V9.364C98.5779 8.272 97.8429 8.02 97.0239 8.02C95.8479 8.02 94.8399 8.293 93.9579 8.692L93.1389 6.34C94.2729 5.857 95.7639 5.5 97.3389 5.5C100.51 5.5 101.791 6.886 101.791 9.595V16ZM98.5779 13.564V11.653H97.2549C96.3729 11.653 95.9109 12.073 95.9109 12.745C95.9109 13.543 96.3519 13.984 97.1499 13.984C97.6119 13.984 98.1369 13.816 98.5779 13.564ZM112.656 5.5C113.706 5.5 114.588 5.857 115.134 6.55C114.903 5.941 114.798 5.437 114.798 4.576V1.51H118.095V16H115.344L115.008 14.908C114.672 15.475 113.769 16.21 112.404 16.21C110.115 16.21 108.183 14.593 108.183 10.855C108.183 7.327 110.283 5.5 112.656 5.5ZM114.798 13.144V8.356C114.42 8.146 113.853 7.957 113.244 7.957C112.257 7.957 111.48 8.524 111.48 10.834C111.48 13.228 112.236 13.795 113.223 13.795C113.811 13.795 114.42 13.501 114.798 13.144ZM129.464 11.737H123.353C123.353 12.913 124.109 13.69 125.705 13.69C126.608 13.69 127.595 13.375 128.603 12.934L129.191 15.244C128.33 15.685 126.881 16.21 125.201 16.21C121.904 16.21 119.993 14.173 119.993 10.834C119.993 7.726 121.484 5.5 124.97 5.5C128.183 5.5 129.464 7.789 129.464 10.372V11.737ZM126.314 9.847C126.314 8.755 125.999 7.915 124.865 7.915C123.773 7.915 123.353 8.902 123.353 9.847H126.314ZM140.661 11.317H139.401V16H136.083V1.825H140.661C143.643 1.825 146.226 3.274 146.226 6.382C146.226 9.028 144.21 11.317 140.661 11.317ZM142.698 6.529C142.698 5.395 141.963 4.618 140.619 4.618H139.401V8.755H140.619C141.963 8.755 142.698 7.747 142.698 6.529ZM151.816 5.5C155.05 5.5 156.856 7.81 156.856 10.834C156.856 14.362 155.05 16.21 151.816 16.21C148.582 16.21 146.776 14.362 146.776 10.834C146.776 7.81 148.582 5.5 151.816 5.5ZM151.816 13.774C152.824 13.774 153.433 13.144 153.433 10.834C153.433 8.44 152.782 7.894 151.816 7.894C150.85 7.894 150.199 8.44 150.199 10.834C150.199 13.144 150.808 13.774 151.816 13.774ZM165.609 5.899L165.231 8.314C164.58 8.041 163.677 7.852 162.837 7.852C162.081 7.852 161.703 8.083 161.703 8.503C161.703 9.805 165.84 9.469 165.84 12.745C165.84 14.74 164.391 16.21 161.535 16.21C160.296 16.21 159.141 15.874 158.469 15.517L159.078 13.228C159.561 13.522 160.527 13.879 161.43 13.879C162.186 13.879 162.669 13.564 162.669 13.039C162.669 11.527 158.595 11.968 158.595 8.461C158.595 6.844 159.792 5.5 162.795 5.5C163.866 5.5 164.958 5.689 165.609 5.899ZM174.399 13.018L174.882 15.475C174.168 15.853 173.139 16.21 171.963 16.21C170.031 16.21 168.603 14.971 168.603 12.514V8.062H167.133V5.71H168.666V3.946L171.9 2.896V5.71H174.525V8.062H171.9V12.409C171.9 13.018 172.194 13.375 172.845 13.375C173.349 13.375 173.937 13.249 174.399 13.018ZM185.974 16H183.832L183.307 14.698C182.845 15.349 181.774 16.21 180.094 16.21C177.385 16.21 176.251 14.74 176.251 11.905V5.71H179.569V11.989C179.569 13.27 180.094 13.69 181.123 13.69C181.711 13.69 182.194 13.522 182.614 13.291V5.71H185.974V16ZM188.068 1.51H191.365V12.808C191.365 13.312 191.617 13.585 192.058 13.606L192.898 13.669V16.021C192.898 16.021 191.974 16.21 191.155 16.21C189.055 16.21 188.068 15.097 188.068 13.333V1.51ZM203.284 16H201.016L200.596 14.824C200.113 15.517 199.105 16.21 197.677 16.21C195.64 16.21 194.149 14.908 194.149 12.829C194.149 10.855 195.619 9.742 198.16 9.742H200.071V9.364C200.071 8.272 199.336 8.02 198.517 8.02C197.341 8.02 196.333 8.293 195.451 8.692L194.632 6.34C195.766 5.857 197.257 5.5 198.832 5.5C202.003 5.5 203.284 6.886 203.284 9.595V16ZM200.071 13.564V11.653H198.748C197.866 11.653 197.404 12.073 197.404 12.745C197.404 13.543 197.845 13.984 198.643 13.984C199.105 13.984 199.63 13.816 200.071 13.564ZM213.882 6.34L213.042 8.566C212.328 8.167 211.404 7.978 210.585 7.978C209.367 7.978 208.569 8.692 208.569 10.834C208.569 12.892 209.262 13.69 210.606 13.69C211.572 13.69 212.643 13.312 213.294 12.955L213.882 15.307C213.336 15.601 211.887 16.21 210.291 16.21C207.015 16.21 205.167 14.362 205.167 10.834C205.167 7.537 206.994 5.5 210.27 5.5C211.719 5.5 212.853 5.773 213.882 6.34ZM219.769 16H216.472V8.062L215.254 7.789V5.71H219.769V16ZM216.409 4.324V1.426H219.727V4.324H216.409ZM226.69 5.5C229.924 5.5 231.73 7.81 231.73 10.834C231.73 14.362 229.924 16.21 226.69 16.21C223.456 16.21 221.65 14.362 221.65 10.834C221.65 7.81 223.456 5.5 226.69 5.5ZM226.69 13.774C227.698 13.774 228.307 13.144 228.307 10.834C228.307 8.44 227.656 7.894 226.69 7.894C225.724 7.894 225.073 8.44 225.073 10.834C225.073 13.144 225.682 13.774 226.69 13.774ZM229.714 3.274L223.981 4.114L223.687 2.224L229.336 0.837999L229.714 3.274ZM243.339 16H239.979V9.931C239.979 8.587 239.412 8.02 238.383 8.02C237.837 8.02 237.333 8.188 236.934 8.377V16H233.616V5.71H235.905L236.367 6.865C236.976 6.109 238.11 5.5 239.643 5.5C242.331 5.5 243.339 7.075 243.339 9.7V16ZM245.365 16V13.648H246.94V16H245.365ZM256.847 16H255.755L255.482 14.677C254.873 15.454 253.76 16.21 252.311 16.21C250.211 16.21 248.993 14.803 248.993 13.06C248.993 11.275 250.295 10.12 252.626 10.12H255.293V9.301C255.293 7.516 254.516 6.76 252.962 6.76C251.66 6.76 250.61 7.096 249.854 7.432L249.434 6.277C250.253 5.92 251.471 5.5 253.172 5.5C255.608 5.5 256.847 6.76 256.847 9.217V16ZM255.293 13.774V11.212H252.878C251.135 11.212 250.547 11.968 250.547 12.997C250.547 14.236 251.219 15.055 252.71 15.055C253.718 15.055 254.684 14.467 255.293 13.774ZM267.69 16H266.052V9.784C266.052 7.831 265.443 6.76 263.7 6.76C262.629 6.76 261.81 7.369 261.18 7.936V16H259.584V5.71H260.655L260.97 6.928C261.558 6.319 262.65 5.5 264.204 5.5C266.619 5.5 267.69 6.949 267.69 9.511V16ZM272.621 16H271.067V6.991L269.933 6.76V5.71H272.621V16ZM270.92 3.337V1.657H272.621V3.337H270.92ZM282.472 16L282.199 14.761C281.611 15.538 280.456 16.21 279.238 16.21C276.802 16.21 275.101 14.404 275.101 10.834C275.101 7.705 276.655 5.5 279.406 5.5C280.687 5.5 281.569 5.92 282.157 6.382C282.094 5.836 282.073 5.311 282.073 4.702V1.51H283.669V16H282.472ZM282.073 13.711V7.453C281.59 7.117 280.729 6.718 279.574 6.718C277.642 6.718 276.718 8.23 276.718 10.834C276.718 13.375 277.537 15.013 279.469 15.013C280.393 15.013 281.233 14.614 282.073 13.711ZM286.134 16V13.648H287.709V16H286.134ZM297.385 14.11L297.763 15.307C297.133 15.664 295.831 16.21 294.34 16.21C291.736 16.21 289.846 14.677 289.846 10.855C289.846 7.369 291.757 5.5 294.34 5.5C295.516 5.5 296.776 5.752 297.7 6.319L297.238 7.453C296.44 6.991 295.474 6.781 294.424 6.781C292.576 6.781 291.442 8.251 291.442 10.855C291.442 13.753 292.576 14.971 294.424 14.971C295.621 14.971 296.65 14.551 297.385 14.11ZM302.382 16.21C300.429 16.21 299.946 15.097 299.946 13.165V1.51H301.521V13.753C301.521 14.635 301.92 14.992 303.054 14.992H303.39V16.084C303.39 16.084 302.886 16.21 302.382 16.21Z" fill="white"/>
</g>
<defs>
<clipPath id="clip0_1_8">
<rect width="305" height="17" fill="white"/>
</clipPath>
</defs>
</svg>
