<?xml version="1.0" encoding="utf-8"?>
<!-- Generator: Adobe Illustrator 28.0.0, SVG Export Plug-In . SVG Version: 6.00 Build 0)  -->
<svg version="1.1" id="Layer_1" xmlns="http://www.w3.org/2000/svg" xmlns:xlink="http://www.w3.org/1999/xlink" x="0px" y="0px"
	 viewBox="0 0 305 53.7" style="enable-background:new 0 0 305 53.7;" xml:space="preserve">
<style type="text/css">
	.st0{clip-path:url(#SVGID_00000159467132439535214730000014448637647938556576_);}
	.st1{fill:#FFFFFF;}
	.st2{fill-rule:evenodd;clip-rule:evenodd;fill:#FF4731;}
	.st3{fill-rule:evenodd;clip-rule:evenodd;fill:#0F69C4;}
</style>
<g>
	<defs>
		<rect id="SVGID_1_" y="20.3" width="305" height="32"/>
	</defs>
	<clipPath id="SVGID_00000048463693174967665530000015312400654755259026_">
		<use xlink:href="#SVGID_1_"  style="overflow:visible;"/>
	</clipPath>
	<g style="clip-path:url(#SVGID_00000048463693174967665530000015312400654755259026_);">
		<path class="st1" d="M4.8,46.6H3.6v4.7H0.3V37.1h4.6c3,0,5.6,1.4,5.6,4.6C10.4,44.3,8.4,46.6,4.8,46.6z M6.9,41.8
			c0-1.1-0.7-1.9-2.1-1.9H3.6V44h1.2C6.1,44,6.9,43,6.9,41.8z M11.9,36.8h3.3v11.3c0,0.5,0.3,0.8,0.7,0.8l0.8,0.1v2.4
			c0,0-0.9,0.2-1.7,0.2c-2.1,0-3.1-1.1-3.1-2.9V36.8z M27.1,51.3h-2.3l-0.4-1.2c-0.5,0.7-1.5,1.4-2.9,1.4c-2,0-3.5-1.3-3.5-3.4
			c0-2,1.5-3.1,4-3.1h1.9v-0.4c0-1.1-0.7-1.3-1.6-1.3c-1.2,0-2.2,0.3-3.1,0.7l-0.8-2.4c1.1-0.5,2.6-0.8,4.2-0.8
			c3.2,0,4.5,1.4,4.5,4.1V51.3z M23.9,48.8v-1.9h-1.3c-0.9,0-1.3,0.4-1.3,1.1c0,0.8,0.4,1.2,1.2,1.2C22.9,49.3,23.5,49.1,23.9,48.8z
			 M35.7,48.3l0.5,2.5c-0.7,0.4-1.7,0.7-2.9,0.7c-1.9,0-3.4-1.2-3.4-3.7v-4.5h-1.5V41H30v-1.8l3.2-1V41h2.6v2.4h-2.6v4.3
			c0,0.6,0.3,1,0.9,1C34.7,48.7,35.3,48.5,35.7,48.3z M46.5,51.3h-2.3l-0.4-1.2c-0.5,0.7-1.5,1.4-2.9,1.4c-2,0-3.5-1.3-3.5-3.4
			c0-2,1.5-3.1,4-3.1h1.9v-0.4c0-1.1-0.7-1.3-1.6-1.3c-1.2,0-2.2,0.3-3.1,0.7l-0.8-2.4c1.1-0.5,2.6-0.8,4.2-0.8
			c3.2,0,4.5,1.4,4.5,4.1V51.3z M43.3,48.8v-1.9H42c-0.9,0-1.3,0.4-1.3,1.1c0,0.8,0.4,1.2,1.2,1.2C42.3,49.3,42.9,49.1,43.3,48.8z
			 M55.3,36.6l-0.2,2.6c-0.4-0.1-0.7-0.2-1.3-0.2c-0.7,0-1.3,0.4-1.3,1.2V41h2.2v2.4h-2.2v7.9h-3.3v-7.9h-1.4V41h1.4v-0.8
			c0-2.4,1.5-3.7,4.3-3.7C54.3,36.4,54.9,36.5,55.3,36.6z M60.4,40.8c3.2,0,5,2.3,5,5.3c0,3.5-1.8,5.4-5,5.4s-5-1.8-5-5.4
			C55.3,43.1,57.1,40.8,60.4,40.8z M60.4,49.1c1,0,1.6-0.6,1.6-2.9c0-2.4-0.7-2.9-1.6-2.9s-1.6,0.5-1.6,2.9
			C58.7,48.4,59.3,49.1,60.4,49.1z M70.6,44v7.2h-3.3V41h2.3l0.3,1.4H70c0.3-0.8,1.2-1.6,2.4-1.6c0.5,0,0.8,0,1.1,0.1l0,2.8
			c-0.4-0.1-0.8-0.2-1.3-0.2C71.6,43.6,71,43.7,70.6,44z M84.5,43.7c0.1,0.4,0.1,0.9,0.1,1.3v6.3h-3.4v-6.1c0-1.3-0.6-1.9-1.6-1.9
			c-0.5,0-1,0.2-1.4,0.4v7.6H75V41h2.2l0.5,1.2c0.6-0.8,1.6-1.4,3-1.4c1.7,0,2.8,0.5,3.3,1.4c0.6-0.8,1.7-1.4,3-1.4
			c3.2,0,3.9,1.6,3.9,4.2v6.3h-3.4v-6.1c0-1.3-0.6-1.9-1.7-1.9C85.4,43.3,84.9,43.5,84.5,43.7z M101.8,51.3h-2.3l-0.4-1.2
			c-0.5,0.7-1.5,1.4-2.9,1.4c-2,0-3.5-1.3-3.5-3.4c0-2,1.5-3.1,4-3.1h1.9v-0.4c0-1.1-0.7-1.3-1.6-1.3c-1.2,0-2.2,0.3-3.1,0.7
			l-0.8-2.4c1.1-0.5,2.6-0.8,4.2-0.8c3.2,0,4.5,1.4,4.5,4.1V51.3z M98.6,48.8v-1.9h-1.3c-0.9,0-1.3,0.4-1.3,1.1
			c0,0.8,0.4,1.2,1.2,1.2C97.6,49.3,98.1,49.1,98.6,48.8z M112.7,40.8c1.1,0,1.9,0.4,2.5,1c-0.2-0.6-0.3-1.1-0.3-2v-3.1h3.3v14.5
			h-2.8l-0.3-1.1c-0.3,0.6-1.2,1.3-2.6,1.3c-2.3,0-4.2-1.6-4.2-5.4C108.2,42.6,110.3,40.8,112.7,40.8z M114.8,48.4v-4.8
			c-0.4-0.2-0.9-0.4-1.6-0.4c-1,0-1.8,0.6-1.8,2.9c0,2.4,0.8,3,1.7,3C113.8,49.1,114.4,48.8,114.8,48.4z M129.5,47h-6.1
			c0,1.2,0.8,2,2.4,2c0.9,0,1.9-0.3,2.9-0.8l0.6,2.3c-0.9,0.4-2.3,1-4,1c-3.3,0-5.2-2-5.2-5.4c0-3.1,1.5-5.3,5-5.3
			c3.2,0,4.5,2.3,4.5,4.9V47z M126.3,45.1c0-1.1-0.3-1.9-1.4-1.9c-1.1,0-1.5,1-1.5,1.9H126.3z M140.7,46.6h-1.3v4.7h-3.3V37.1h4.6
			c3,0,5.6,1.4,5.6,4.6C146.2,44.3,144.2,46.6,140.7,46.6z M142.7,41.8c0-1.1-0.7-1.9-2.1-1.9h-1.2V44h1.2
			C142,44,142.7,43,142.7,41.8z M151.8,40.8c3.2,0,5,2.3,5,5.3c0,3.5-1.8,5.4-5,5.4c-3.2,0-5-1.8-5-5.4
			C146.8,43.1,148.6,40.8,151.8,40.8z M151.8,49.1c1,0,1.6-0.6,1.6-2.9c0-2.4-0.7-2.9-1.6-2.9c-1,0-1.6,0.5-1.6,2.9
			C150.2,48.4,150.8,49.1,151.8,49.1z M165.6,41.2l-0.4,2.4c-0.7-0.3-1.6-0.5-2.4-0.5c-0.8,0-1.1,0.2-1.1,0.7c0,1.3,4.1,1,4.1,4.2
			c0,2-1.4,3.5-4.3,3.5c-1.2,0-2.4-0.3-3.1-0.7l0.6-2.3c0.5,0.3,1.4,0.7,2.4,0.7c0.8,0,1.2-0.3,1.2-0.8c0-1.5-4.1-1.1-4.1-4.6
			c0-1.6,1.2-3,4.2-3C163.9,40.8,165,41,165.6,41.2z M174.4,48.3l0.5,2.5c-0.7,0.4-1.7,0.7-2.9,0.7c-1.9,0-3.4-1.2-3.4-3.7v-4.5
			h-1.5V41h1.5v-1.8l3.2-1V41h2.6v2.4h-2.6v4.3c0,0.6,0.3,1,0.9,1C173.3,48.7,173.9,48.5,174.4,48.3z M186,51.3h-2.1l-0.5-1.3
			c-0.5,0.7-1.5,1.5-3.2,1.5c-2.7,0-3.8-1.5-3.8-4.3V41h3.3v6.3c0,1.3,0.5,1.7,1.6,1.7c0.6,0,1.1-0.2,1.5-0.4V41h3.4V51.3z
			 M188.1,36.8h3.3v11.3c0,0.5,0.3,0.8,0.7,0.8l0.8,0.1v2.4c0,0-0.9,0.2-1.7,0.2c-2.1,0-3.1-1.1-3.1-2.9V36.8z M203.3,51.3H201
			l-0.4-1.2c-0.5,0.7-1.5,1.4-2.9,1.4c-2,0-3.5-1.3-3.5-3.4c0-2,1.5-3.1,4-3.1h1.9v-0.4c0-1.1-0.7-1.3-1.6-1.3
			c-1.2,0-2.2,0.3-3.1,0.7l-0.8-2.4c1.1-0.5,2.6-0.8,4.2-0.8c3.2,0,4.5,1.4,4.5,4.1V51.3z M200.1,48.8v-1.9h-1.3
			c-0.9,0-1.3,0.4-1.3,1.1c0,0.8,0.4,1.2,1.2,1.2C199.1,49.3,199.6,49.1,200.1,48.8z M213.9,41.6l-0.8,2.2c-0.7-0.4-1.6-0.6-2.5-0.6
			c-1.2,0-2,0.7-2,2.9c0,2.1,0.7,2.9,2,2.9c1,0,2-0.4,2.7-0.7l0.6,2.4c-0.5,0.3-2,0.9-3.6,0.9c-3.3,0-5.1-1.8-5.1-5.4
			c0-3.3,1.8-5.3,5.1-5.3C211.7,40.8,212.9,41.1,213.9,41.6z M219.8,51.3h-3.3v-7.9l-1.2-0.3V41h4.5V51.3z M216.4,39.6v-2.9h3.3v2.9
			H216.4z M226.7,40.8c3.2,0,5,2.3,5,5.3c0,3.5-1.8,5.4-5,5.4c-3.2,0-5-1.8-5-5.4C221.6,43.1,223.5,40.8,226.7,40.8z M226.7,49.1
			c1,0,1.6-0.6,1.6-2.9c0-2.4-0.7-2.9-1.6-2.9s-1.6,0.5-1.6,2.9C225.1,48.4,225.7,49.1,226.7,49.1z M229.7,38.6l-5.7,0.8l-0.3-1.9
			l5.6-1.4L229.7,38.6z M243.3,51.3H240v-6.1c0-1.3-0.6-1.9-1.6-1.9c-0.5,0-1.1,0.2-1.4,0.4v7.6h-3.3V41h2.3l0.5,1.2
			c0.6-0.8,1.7-1.4,3.3-1.4c2.7,0,3.7,1.6,3.7,4.2V51.3z M245.4,51.3v-2.4h1.6v2.4H245.4z M256.8,51.3h-1.1l-0.3-1.3
			c-0.6,0.8-1.7,1.5-3.2,1.5c-2.1,0-3.3-1.4-3.3-3.2c0-1.8,1.3-2.9,3.6-2.9h2.7v-0.8c0-1.8-0.8-2.5-2.3-2.5c-1.3,0-2.4,0.3-3.1,0.7
			l-0.4-1.2c0.8-0.4,2-0.8,3.7-0.8c2.4,0,3.7,1.3,3.7,3.7V51.3z M255.3,49.1v-2.6h-2.4c-1.7,0-2.3,0.8-2.3,1.8
			c0,1.2,0.7,2.1,2.2,2.1C253.7,50.3,254.7,49.7,255.3,49.1z M267.7,51.3h-1.6v-6.2c0-2-0.6-3-2.4-3c-1.1,0-1.9,0.6-2.5,1.2v8.1
			h-1.6V41h1.1l0.3,1.2c0.6-0.6,1.7-1.4,3.2-1.4c2.4,0,3.5,1.4,3.5,4V51.3z M272.6,51.3h-1.6v-9l-1.1-0.2v-1h2.7V51.3z M270.9,38.6
			v-1.7h1.7v1.7H270.9z M282.5,51.3l-0.3-1.2c-0.6,0.8-1.7,1.4-3,1.4c-2.4,0-4.1-1.8-4.1-5.4c0-3.1,1.6-5.3,4.3-5.3
			c1.3,0,2.2,0.4,2.8,0.9c-0.1-0.5-0.1-1.1-0.1-1.7v-3.2h1.6v14.5H282.5z M282.1,49v-6.3c-0.5-0.3-1.3-0.7-2.5-0.7
			c-1.9,0-2.9,1.5-2.9,4.1c0,2.5,0.8,4.2,2.8,4.2C280.4,50.3,281.2,49.9,282.1,49z M286.1,51.3v-2.4h1.6v2.4H286.1z M297.4,49.4
			l0.4,1.2c-0.6,0.4-1.9,0.9-3.4,0.9c-2.6,0-4.5-1.5-4.5-5.4c0-3.5,1.9-5.4,4.5-5.4c1.2,0,2.4,0.3,3.4,0.8l-0.5,1.1
			c-0.8-0.5-1.8-0.7-2.8-0.7c-1.8,0-3,1.5-3,4.1c0,2.9,1.1,4.1,3,4.1C295.6,50.3,296.6,49.8,297.4,49.4z M302.4,51.5
			c-2,0-2.4-1.1-2.4-3V36.8h1.6V49c0,0.9,0.4,1.2,1.5,1.2h0.3v1.1C303.4,51.4,302.9,51.5,302.4,51.5z"/>
	</g>
</g>
<path class="st2" d="M113.4,10.2h191V0.4h-191V10.2z"/>
<path class="st3" d="M-0.6,10.2h114V0.4h-114V10.2z"/>
</svg>
